<svg width="122" height="23" viewBox="0 0 122 23" fill="none" xmlns="http://www.w3.org/2000/svg">
<path d="M8.09375 3.62402L6.0625 7.78027L1.46875 8.43652C0.65625 8.56152 0.34375 9.56152 0.9375 10.1553L4.21875 13.374L3.4375 17.9053C3.3125 18.7178 4.1875 19.3428 4.90625 18.9678L9 16.8115L13.0625 18.9678C13.7812 19.3428 14.6562 18.7178 14.5312 17.9053L13.75 13.374L17.0312 10.1553C17.625 9.56152 17.3125 8.56152 16.5 8.43652L11.9375 7.78027L9.875 3.62402C9.53125 2.90527 8.46875 2.87402 8.09375 3.62402Z" fill="#EFAB18"/>
<path d="M34.0938 3.62402L32.0625 7.78027L27.4688 8.43652C26.6562 8.56152 26.3438 9.56152 26.9375 10.1553L30.2188 13.374L29.4375 17.9053C29.3125 18.7178 30.1875 19.3428 30.9062 18.9678L35 16.8115L39.0625 18.9678C39.7812 19.3428 40.6562 18.7178 40.5312 17.9053L39.75 13.374L43.0312 10.1553C43.625 9.56152 43.3125 8.56152 42.5 8.43652L37.9375 7.78027L35.875 3.62402C35.5312 2.90527 34.4688 2.87402 34.0938 3.62402Z" fill="#EFAB18"/>
<path d="M60.0938 3.62402L58.0625 7.78027L53.4688 8.43652C52.6562 8.56152 52.3438 9.56152 52.9375 10.1553L56.2188 13.374L55.4375 17.9053C55.3125 18.7178 56.1875 19.3428 56.9062 18.9678L61 16.8115L65.0625 18.9678C65.7812 19.3428 66.6562 18.7178 66.5312 17.9053L65.75 13.374L69.0312 10.1553C69.625 9.56152 69.3125 8.56152 68.5 8.43652L63.9375 7.78027L61.875 3.62402C61.5312 2.90527 60.4688 2.87402 60.0938 3.62402Z" fill="#EFAB18"/>
<path d="M86.0938 3.62402L84.0625 7.78027L79.4688 8.43652C78.6562 8.56152 78.3438 9.56152 78.9375 10.1553L82.2188 13.374L81.4375 17.9053C81.3125 18.7178 82.1875 19.3428 82.9062 18.9678L87 16.8115L91.0625 18.9678C91.7812 19.3428 92.6562 18.7178 92.5312 17.9053L91.75 13.374L95.0312 10.1553C95.625 9.56152 95.3125 8.56152 94.5 8.43652L89.9375 7.78027L87.875 3.62402C87.5312 2.90527 86.4688 2.87402 86.0938 3.62402Z" fill="#EFAB18"/>
<path d="M112.094 3.62402L110.062 7.78027L105.469 8.43652C104.656 8.56152 104.344 9.56152 104.938 10.1553L108.219 13.374L107.438 17.9053C107.312 18.7178 108.188 19.3428 108.906 18.9678L113 16.8115L117.062 18.9678C117.781 19.3428 118.656 18.7178 118.531 17.9053L117.75 13.374L121.031 10.1553C121.625 9.56152 121.312 8.56152 120.5 8.43652L115.938 7.78027L113.875 3.62402C113.531 2.90527 112.469 2.87402 112.094 3.62402Z" fill="#EFAB18"/>
</svg>
