<svg width="9" height="12" viewBox="0 0 9 12" fill="none" xmlns="http://www.w3.org/2000/svg">
<path d="M4.07031 11.3311C4.26367 11.6318 4.71484 11.6318 4.9082 11.3311C8.04492 6.81934 8.625 6.34668 8.625 4.6709C8.625 2.39355 6.77734 0.545898 4.5 0.545898C2.20117 0.545898 0.375 2.39355 0.375 4.6709C0.375 6.34668 0.933594 6.81934 4.07031 11.3311ZM4.5 6.38965C3.5332 6.38965 2.78125 5.6377 2.78125 4.6709C2.78125 3.72559 3.5332 2.95215 4.5 2.95215C5.44531 2.95215 6.21875 3.72559 6.21875 4.6709C6.21875 5.6377 5.44531 6.38965 4.5 6.38965Z" fill="#4E92F9"/>
</svg>
