<svg width="11" height="10" viewBox="0 0 11 10" fill="none" xmlns="http://www.w3.org/2000/svg">
<path d="M10.7852 3.64941C10.291 4.03613 9.66797 4.50879 7.47656 6.09863C7.04688 6.4209 6.25195 7.12988 5.5 7.12988C4.72656 7.12988 3.95312 6.4209 3.50195 6.09863C1.31055 4.50879 0.6875 4.03613 0.193359 3.64941C0.107422 3.58496 0 3.64941 0 3.75684V8.13965C0 8.71973 0.451172 9.1709 1.03125 9.1709H9.96875C10.5273 9.1709 11 8.71973 11 8.13965V3.75684C11 3.64941 10.8711 3.58496 10.7852 3.64941ZM5.5 6.4209C5.99414 6.44238 6.70312 5.79785 7.06836 5.54004C9.92578 3.47754 10.1406 3.28418 10.7852 2.76855C10.9141 2.68262 11 2.53223 11 2.36035V1.95215C11 1.39355 10.5273 0.920898 9.96875 0.920898H1.03125C0.451172 0.920898 0 1.39355 0 1.95215V2.36035C0 2.53223 0.0644531 2.68262 0.193359 2.76855C0.837891 3.28418 1.05273 3.47754 3.91016 5.54004C4.27539 5.79785 4.98438 6.44238 5.5 6.4209Z" fill="#4E92F9"/>
</svg>
