<svg width="1920" height="965" viewBox="0 0 1920 965" fill="none" xmlns="http://www.w3.org/2000/svg">
<path d="M1920 135H0V965H1920V135Z" fill="url(#paint0_linear)" fill-opacity="0.15"/>
<g filter="url(#filter0_f)">
<circle cx="433.5" cy="462.5" r="198.5" fill="url(#paint1_linear)" fill-opacity="0.6"/>
</g>
<g filter="url(#filter1_f)">
<circle cx="1740.5" cy="457.5" r="242.5" fill="url(#paint2_radial)" fill-opacity="0.5"/>
</g>
<g filter="url(#filter2_f)">
<circle cx="832.5" cy="880.5" r="242.5" fill="url(#paint3_radial)" fill-opacity="0.5"/>
</g>
<g filter="url(#filter3_f)">
<circle cx="35.5" cy="673.5" r="434.5" fill="url(#paint4_radial)" fill-opacity="0.2"/>
</g>
<g filter="url(#filter4_f)">
<circle cx="1079.5" cy="431.5" r="81.5" fill="url(#paint5_linear)" fill-opacity="0.2"/>
</g>
<path d="M1524.74 520.51C1523.99 521.373 1522.63 521.335 1521.93 520.43L1511.94 507.584C1511.51 507.029 1511.44 506.275 1511.75 505.647L1520.02 489.228C1520.56 488.165 1521.95 487.892 1522.85 488.675L1538.32 502.18C1539.08 502.842 1539.16 503.993 1538.49 504.751L1524.74 520.51Z" stroke="#4E92F9" stroke-width="6.4088"/>
<rect x="87.5" y="352.5" width="6" height="6" rx="3" stroke="url(#paint6_linear)"/>
<rect opacity="0.6" x="1348.5" y="482.5" width="6" height="6" rx="3" stroke="url(#paint7_linear)"/>
<rect opacity="0.6" x="526" y="506" width="6" height="6" rx="3" stroke="url(#paint8_linear)" stroke-width="2"/>
<rect opacity="0.6" x="1088" y="281" width="6" height="6" rx="3" stroke="url(#paint9_linear)" stroke-width="2"/>
<rect opacity="0.6" x="1805" y="469" width="6" height="6" rx="3" stroke="url(#paint10_linear)" stroke-width="2"/>
<rect opacity="0.6" x="459" y="185" width="6" height="6" rx="3" stroke="url(#paint11_linear)" stroke-width="2"/>
<rect opacity="0.6" x="328" y="447" width="6" height="6" rx="3" stroke="url(#paint12_linear)" stroke-width="2"/>
<rect opacity="0.6" x="1123" y="208" width="6" height="6" rx="3" stroke="url(#paint13_linear)" stroke-width="2"/>
<rect opacity="0.6" x="1684" y="208" width="6" height="6" rx="3" stroke="url(#paint14_linear)" stroke-width="2"/>
<rect opacity="0.6" x="1437" y="296" width="6" height="6" rx="3" stroke="url(#paint15_linear)" stroke-width="2"/>
<path d="M220.664 357.923L183.438 365.448L191.226 328.902L154 336.427" stroke="#EFAB18" stroke-width="5" stroke-linecap="round" stroke-linejoin="round"/>
<defs>
<filter id="filter0_f" x="210" y="239" width="447" height="447" filterUnits="userSpaceOnUse" color-interpolation-filters="sRGB">
<feFlood flood-opacity="0" result="BackgroundImageFix"/>
<feBlend mode="normal" in="SourceGraphic" in2="BackgroundImageFix" result="shape"/>
<feGaussianBlur stdDeviation="12.5" result="effect1_foregroundBlur"/>
</filter>
<filter id="filter1_f" x="1283" y="0" width="915" height="915" filterUnits="userSpaceOnUse" color-interpolation-filters="sRGB">
<feFlood flood-opacity="0" result="BackgroundImageFix"/>
<feBlend mode="normal" in="SourceGraphic" in2="BackgroundImageFix" result="shape"/>
<feGaussianBlur stdDeviation="107.5" result="effect1_foregroundBlur"/>
</filter>
<filter id="filter2_f" x="375" y="423" width="915" height="915" filterUnits="userSpaceOnUse" color-interpolation-filters="sRGB">
<feFlood flood-opacity="0" result="BackgroundImageFix"/>
<feBlend mode="normal" in="SourceGraphic" in2="BackgroundImageFix" result="shape"/>
<feGaussianBlur stdDeviation="107.5" result="effect1_foregroundBlur"/>
</filter>
<filter id="filter3_f" x="-614" y="24" width="1299" height="1299" filterUnits="userSpaceOnUse" color-interpolation-filters="sRGB">
<feFlood flood-opacity="0" result="BackgroundImageFix"/>
<feBlend mode="normal" in="SourceGraphic" in2="BackgroundImageFix" result="shape"/>
<feGaussianBlur stdDeviation="107.5" result="effect1_foregroundBlur"/>
</filter>
<filter id="filter4_f" x="973" y="325" width="213" height="213" filterUnits="userSpaceOnUse" color-interpolation-filters="sRGB">
<feFlood flood-opacity="0" result="BackgroundImageFix"/>
<feBlend mode="normal" in="SourceGraphic" in2="BackgroundImageFix" result="shape"/>
<feGaussianBlur stdDeviation="12.5" result="effect1_foregroundBlur"/>
</filter>
<linearGradient id="paint0_linear" x1="-232.649" y1="837.039" x2="2272.43" y2="837.039" gradientUnits="userSpaceOnUse">
<stop stop-color="#4E92F9" stop-opacity="0"/>
<stop offset="0.0763485" stop-color="#4E92F9" stop-opacity="0.44"/>
<stop offset="0.860348" stop-color="#C381DB" stop-opacity="0.67"/>
<stop offset="1" stop-color="#C381DB" stop-opacity="0"/>
</linearGradient>
<linearGradient id="paint1_linear" x1="418" y1="264" x2="600.789" y2="752.759" gradientUnits="userSpaceOnUse">
<stop stop-color="#D0E3FF" stop-opacity="0"/>
<stop offset="1" stop-color="#0066FF" stop-opacity="0.49"/>
</linearGradient>
<radialGradient id="paint2_radial" cx="0" cy="0" r="1" gradientUnits="userSpaceOnUse" gradientTransform="translate(1826.09 467.226) rotate(70.995) scale(364.756)">
<stop stop-color="#FA897B" stop-opacity="0.33"/>
<stop offset="1" stop-color="#FA897B" stop-opacity="0"/>
</radialGradient>
<radialGradient id="paint3_radial" cx="0" cy="0" r="1" gradientUnits="userSpaceOnUse" gradientTransform="translate(918.088 890.226) rotate(70.995) scale(364.756)">
<stop stop-color="#0066FF" stop-opacity="0.37"/>
<stop offset="1" stop-color="#0066FF" stop-opacity="0"/>
</radialGradient>
<radialGradient id="paint4_radial" cx="0" cy="0" r="1" gradientUnits="userSpaceOnUse" gradientTransform="translate(35.5 673.5) rotate(90) scale(473)">
<stop stop-color="#FFB007"/>
<stop offset="1" stop-color="#FFB007" stop-opacity="0"/>
</radialGradient>
<linearGradient id="paint5_linear" x1="1068.34" y1="318.863" x2="1148.19" y2="550.675" gradientUnits="userSpaceOnUse">
<stop stop-color="#0066FF" stop-opacity="0"/>
<stop offset="1" stop-color="#0066FF" stop-opacity="0.49"/>
</linearGradient>
<linearGradient id="paint6_linear" x1="87" y1="352" x2="95.4495" y2="355.546" gradientUnits="userSpaceOnUse">
<stop stop-color="#C381DB"/>
<stop offset="1" stop-color="#4E92F9"/>
</linearGradient>
<linearGradient id="paint7_linear" x1="1348" y1="482" x2="1356.45" y2="485.546" gradientUnits="userSpaceOnUse">
<stop stop-color="#C381DB"/>
<stop offset="1" stop-color="#4E92F9"/>
</linearGradient>
<linearGradient id="paint8_linear" x1="525" y1="505" x2="534.657" y2="509.053" gradientUnits="userSpaceOnUse">
<stop stop-color="#C381DB"/>
<stop offset="1" stop-color="#4E92F9"/>
</linearGradient>
<linearGradient id="paint9_linear" x1="1087" y1="280" x2="1096.66" y2="284.053" gradientUnits="userSpaceOnUse">
<stop stop-color="#C381DB"/>
<stop offset="1" stop-color="#4E92F9"/>
</linearGradient>
<linearGradient id="paint10_linear" x1="1804" y1="468" x2="1813.66" y2="472.053" gradientUnits="userSpaceOnUse">
<stop stop-color="#C381DB"/>
<stop offset="1" stop-color="#4E92F9"/>
</linearGradient>
<linearGradient id="paint11_linear" x1="458" y1="184" x2="467.657" y2="188.053" gradientUnits="userSpaceOnUse">
<stop stop-color="#C381DB"/>
<stop offset="1" stop-color="#4E92F9"/>
</linearGradient>
<linearGradient id="paint12_linear" x1="327" y1="446" x2="336.657" y2="450.053" gradientUnits="userSpaceOnUse">
<stop stop-color="#C381DB"/>
<stop offset="1" stop-color="#4E92F9"/>
</linearGradient>
<linearGradient id="paint13_linear" x1="1122" y1="207" x2="1131.66" y2="211.053" gradientUnits="userSpaceOnUse">
<stop stop-color="#C381DB"/>
<stop offset="1" stop-color="#4E92F9"/>
</linearGradient>
<linearGradient id="paint14_linear" x1="1683" y1="207" x2="1692.66" y2="211.053" gradientUnits="userSpaceOnUse">
<stop stop-color="#C381DB"/>
<stop offset="1" stop-color="#4E92F9"/>
</linearGradient>
<linearGradient id="paint15_linear" x1="1436" y1="295" x2="1445.66" y2="299.053" gradientUnits="userSpaceOnUse">
<stop stop-color="#C381DB"/>
<stop offset="1" stop-color="#4E92F9"/>
</linearGradient>
</defs>
</svg>
