<svg width="122" height="15" viewBox="0 0 122 15" fill="none" xmlns="http://www.w3.org/2000/svg">
<path d="M10.408 0.639999C10.6107 0.639999 10.7653 0.704 10.872 0.832C10.9893 0.949333 11.048 1.10933 11.048 1.312V11.44C11.048 11.632 10.9947 11.7867 10.888 11.904C10.7813 12.0213 10.632 12.08 10.44 12.08C10.248 12.08 10.104 12.0213 10.008 11.904C9.912 11.7867 9.864 11.632 9.864 11.44V3.264L6.392 9.92C6.24267 10.2293 6.024 10.384 5.736 10.384C5.45867 10.384 5.24 10.2293 5.08 9.92L1.592 3.344V11.44C1.592 11.632 1.53867 11.7867 1.432 11.904C1.336 12.0213 1.192 12.08 1 12.08C0.808 12.08 0.658667 12.0213 0.552 11.904C0.445333 11.7867 0.392 11.632 0.392 11.44V1.312C0.392 1.10933 0.450667 0.949333 0.568 0.832C0.685333 0.704 0.845333 0.639999 1.048 0.639999C1.31467 0.639999 1.528 0.794666 1.688 1.104L5.752 8.896L9.768 1.104C9.85333 0.933333 9.944 0.816 10.04 0.752C10.1467 0.677333 10.2693 0.639999 10.408 0.639999ZM16.8371 4.016C18.7891 4.016 19.7651 5.04 19.7651 7.088V11.44C19.7651 11.632 19.7065 11.7867 19.5891 11.904C19.4825 12.0213 19.3331 12.08 19.1411 12.08C18.9491 12.08 18.7945 12.0213 18.6771 11.904C18.5598 11.7867 18.5011 11.632 18.5011 11.44V10.672C18.2985 11.1307 17.9891 11.488 17.5731 11.744C17.1571 11.9893 16.6771 12.112 16.1331 12.112C15.6318 12.112 15.1678 12.0107 14.7411 11.808C14.3251 11.6053 13.9945 11.3227 13.7491 10.96C13.5038 10.5973 13.3811 10.1973 13.3811 9.76C13.3811 9.17333 13.5305 8.72 13.8291 8.4C14.1278 8.06933 14.6185 7.83467 15.3011 7.696C15.9838 7.54667 16.9331 7.472 18.1491 7.472H18.5011V6.944C18.5011 6.304 18.3678 5.83467 18.1011 5.536C17.8451 5.23733 17.4238 5.088 16.8371 5.088C16.1118 5.088 15.3758 5.28533 14.6291 5.68C14.3411 5.86133 14.1385 5.952 14.0211 5.952C13.8931 5.952 13.7865 5.904 13.7011 5.808C13.6158 5.712 13.5731 5.58933 13.5731 5.44C13.5731 5.29067 13.6158 5.16267 13.7011 5.056C13.7971 4.93867 13.9465 4.82133 14.1491 4.704C14.5225 4.49067 14.9438 4.32533 15.4131 4.208C15.8931 4.08 16.3678 4.016 16.8371 4.016ZM16.3091 11.088C16.9491 11.088 17.4718 10.8747 17.8771 10.448C18.2931 10.0107 18.5011 9.45067 18.5011 8.768V8.304H18.2131C17.2745 8.304 16.5598 8.34667 16.0691 8.432C15.5785 8.50667 15.2265 8.64 15.0131 8.832C14.8105 9.01333 14.7091 9.28533 14.7091 9.648C14.7091 10.064 14.8585 10.4107 15.1571 10.688C15.4665 10.9547 15.8505 11.088 16.3091 11.088ZM28.3935 0.639999C28.5962 0.639999 28.7562 0.698666 28.8735 0.815999C28.9908 0.933333 29.0495 1.08267 29.0495 1.264V11.44C29.0495 11.632 28.9908 11.7867 28.8735 11.904C28.7562 12.0213 28.5962 12.08 28.3935 12.08C28.1908 12.08 28.0308 12.0213 27.9135 11.904C27.8068 11.7867 27.7535 11.632 27.7535 11.44V10.576C27.5188 11.0667 27.1722 11.4453 26.7135 11.712C26.2655 11.9787 25.7375 12.112 25.1295 12.112C24.4468 12.112 23.8442 11.9413 23.3215 11.6C22.7988 11.2587 22.3935 10.784 22.1055 10.176C21.8175 9.55733 21.6735 8.84267 21.6735 8.032C21.6735 7.232 21.8175 6.528 22.1055 5.92C22.3935 5.312 22.7988 4.84267 23.3215 4.512C23.8442 4.18133 24.4468 4.016 25.1295 4.016C25.7375 4.016 26.2655 4.14933 26.7135 4.416C27.1722 4.68267 27.5188 5.06133 27.7535 5.552V1.264C27.7535 1.072 27.8068 0.922666 27.9135 0.815999C28.0308 0.698666 28.1908 0.639999 28.3935 0.639999ZM25.3855 11.04C26.1428 11.04 26.7242 10.784 27.1295 10.272C27.5455 9.74933 27.7535 9.01333 27.7535 8.064C27.7535 7.11467 27.5455 6.384 27.1295 5.872C26.7242 5.36 26.1428 5.104 25.3855 5.104C24.6282 5.104 24.0362 5.36 23.6095 5.872C23.1935 6.384 22.9855 7.104 22.9855 8.032C22.9855 8.98133 23.1935 9.72267 23.6095 10.256C24.0362 10.7787 24.6282 11.04 25.3855 11.04ZM37.482 10.192C37.5993 10.192 37.7007 10.24 37.786 10.336C37.8713 10.432 37.914 10.5547 37.914 10.704C37.914 10.9707 37.7273 11.216 37.354 11.44C36.97 11.664 36.5647 11.8347 36.138 11.952C35.7113 12.0587 35.2953 12.112 34.89 12.112C33.6847 12.112 32.73 11.7547 32.026 11.04C31.3327 10.3253 30.986 9.33867 30.986 8.08C30.986 7.28 31.1407 6.576 31.45 5.968C31.7593 5.34933 32.1913 4.86933 32.746 4.528C33.3113 4.18667 33.9513 4.016 34.666 4.016C35.6793 4.016 36.4847 4.34667 37.082 5.008C37.6793 5.66933 37.978 6.56533 37.978 7.696C37.978 7.90933 37.9353 8.064 37.85 8.16C37.7647 8.256 37.626 8.304 37.434 8.304H32.282C32.378 10.1387 33.2473 11.056 34.89 11.056C35.306 11.056 35.6633 11.0027 35.962 10.896C36.2607 10.7787 36.5807 10.624 36.922 10.432C37.1993 10.272 37.386 10.192 37.482 10.192ZM34.682 5.024C33.9993 5.024 33.45 5.23733 33.034 5.664C32.6287 6.09067 32.3887 6.69333 32.314 7.472H36.842C36.8207 6.68267 36.6233 6.08 36.25 5.664C35.8767 5.23733 35.354 5.024 34.682 5.024ZM54.6685 4.464C54.7752 4.208 54.9512 4.08 55.1965 4.08C55.3565 4.08 55.5005 4.13333 55.6285 4.24C55.7565 4.34667 55.8205 4.48 55.8205 4.64C55.8205 4.71467 55.8045 4.79467 55.7725 4.88L53.1165 11.6C53.0525 11.7387 52.9565 11.8507 52.8285 11.936C52.7112 12.0107 52.5778 12.048 52.4285 12.048C52.2898 12.048 52.1565 12.0107 52.0285 11.936C51.9112 11.8507 51.8205 11.7387 51.7565 11.6L49.5485 5.984L47.3565 11.6C47.3032 11.7387 47.2125 11.8507 47.0845 11.936C46.9565 12.0107 46.8178 12.048 46.6685 12.048C46.5298 12.048 46.3965 12.0107 46.2685 11.936C46.1405 11.8507 46.0445 11.7387 45.9805 11.6L43.3245 4.896C43.2925 4.81067 43.2765 4.736 43.2765 4.672C43.2765 4.50133 43.3458 4.35733 43.4845 4.24C43.6338 4.12267 43.7938 4.064 43.9645 4.064C44.2205 4.064 44.4018 4.192 44.5085 4.448L46.7005 10.352L48.9565 4.496C49.0205 4.35733 49.1058 4.25067 49.2125 4.176C49.3298 4.10133 49.4525 4.064 49.5805 4.064C49.7192 4.064 49.8418 4.10133 49.9485 4.176C50.0658 4.25067 50.1512 4.35733 50.2045 4.496L52.4605 10.336L54.6685 4.464ZM58.3404 12.08C58.1484 12.08 57.9884 12.0267 57.8604 11.92C57.743 11.8027 57.6844 11.6427 57.6844 11.44V4.688C57.6844 4.48533 57.743 4.33067 57.8604 4.224C57.9884 4.10667 58.1484 4.048 58.3404 4.048C58.5324 4.048 58.687 4.10667 58.8044 4.224C58.9217 4.33067 58.9804 4.48533 58.9804 4.688V11.44C58.9804 11.6533 58.9217 11.8133 58.8044 11.92C58.687 12.0267 58.5324 12.08 58.3404 12.08ZM58.3404 2.368C58.0844 2.368 57.8764 2.29333 57.7164 2.144C57.5564 1.99467 57.4764 1.79733 57.4764 1.552C57.4764 1.31733 57.5564 1.12533 57.7164 0.976C57.8764 0.826667 58.0844 0.752 58.3404 0.752C58.5964 0.752 58.8044 0.826667 58.9644 0.976C59.1244 1.12533 59.2044 1.31733 59.2044 1.552C59.2044 1.79733 59.1244 1.99467 58.9644 2.144C58.8044 2.29333 58.5964 2.368 58.3404 2.368ZM65.1281 11.056C65.5015 11.088 65.6881 11.2587 65.6881 11.568C65.6881 11.7493 65.6188 11.888 65.4801 11.984C65.3521 12.0693 65.1548 12.1013 64.8881 12.08L64.4561 12.048C63.6028 11.984 62.9735 11.728 62.5681 11.28C62.1628 10.832 61.9601 10.1547 61.9601 9.248V5.232H60.8881C60.7068 5.232 60.5628 5.18933 60.4561 5.104C60.3601 5.008 60.3121 4.88533 60.3121 4.736C60.3121 4.576 60.3601 4.448 60.4561 4.352C60.5628 4.256 60.7068 4.208 60.8881 4.208H61.9601V2.4C61.9601 2.19733 62.0188 2.04267 62.1361 1.936C62.2535 1.81867 62.4135 1.76 62.6161 1.76C62.8081 1.76 62.9628 1.81867 63.0801 1.936C63.1975 2.04267 63.2561 2.19733 63.2561 2.4V4.208H65.0321C65.2028 4.208 65.3361 4.256 65.4321 4.352C65.5388 4.448 65.5921 4.576 65.5921 4.736C65.5921 4.88533 65.5388 5.008 65.4321 5.104C65.3361 5.18933 65.2028 5.232 65.0321 5.232H63.2561V9.312C63.2561 9.89867 63.3735 10.3253 63.6081 10.592C63.8535 10.848 64.2161 10.992 64.6961 11.024L65.1281 11.056ZM70.9016 4.016C71.819 4.016 72.5123 4.27733 72.9816 4.8C73.451 5.312 73.6856 6.08 73.6856 7.104V11.44C73.6856 11.6427 73.627 11.8027 73.5096 11.92C73.3923 12.0267 73.2376 12.08 73.0456 12.08C72.843 12.08 72.683 12.0267 72.5656 11.92C72.4483 11.8027 72.3896 11.6427 72.3896 11.44V7.136C72.3896 6.44267 72.2456 5.93067 71.9576 5.6C71.6803 5.26933 71.2323 5.104 70.6136 5.104C69.899 5.104 69.3283 5.32267 68.9016 5.76C68.475 6.19733 68.2616 6.78933 68.2616 7.536V11.44C68.2616 11.6427 68.203 11.8027 68.0856 11.92C67.979 12.0267 67.8243 12.08 67.6216 12.08C67.419 12.08 67.259 12.0267 67.1416 11.92C67.0243 11.8027 66.9656 11.6427 66.9656 11.44V1.264C66.9656 1.08267 67.0243 0.933333 67.1416 0.815999C67.2696 0.698666 67.4296 0.639999 67.6216 0.639999C67.8243 0.639999 67.979 0.698666 68.0856 0.815999C68.203 0.922666 68.2616 1.072 68.2616 1.264V5.456C68.5176 4.98667 68.875 4.62933 69.3336 4.384C69.7923 4.13867 70.315 4.016 70.9016 4.016ZM109.479 4.016C110.162 4.016 110.765 4.18133 111.287 4.512C111.81 4.84267 112.215 5.312 112.503 5.92C112.791 6.528 112.935 7.232 112.935 8.032C112.935 8.84267 112.791 9.55733 112.503 10.176C112.215 10.784 111.81 11.2587 111.287 11.6C110.765 11.9413 110.162 12.112 109.479 12.112C108.871 12.112 108.338 11.9787 107.879 11.712C107.431 11.4453 107.09 11.0667 106.855 10.576V11.44C106.855 11.632 106.797 11.7867 106.679 11.904C106.573 12.0213 106.418 12.08 106.215 12.08C106.013 12.08 105.853 12.0213 105.735 11.904C105.618 11.7867 105.559 11.632 105.559 11.44V1.264C105.559 1.08267 105.618 0.933333 105.735 0.815999C105.853 0.698666 106.013 0.639999 106.215 0.639999C106.418 0.639999 106.573 0.698666 106.679 0.815999C106.797 0.922666 106.855 1.072 106.855 1.264V5.552C107.09 5.06133 107.431 4.68267 107.879 4.416C108.338 4.14933 108.871 4.016 109.479 4.016ZM109.223 11.04C109.981 11.04 110.567 10.7787 110.983 10.256C111.399 9.72267 111.607 8.98133 111.607 8.032C111.607 7.104 111.399 6.384 110.983 5.872C110.567 5.36 109.981 5.104 109.223 5.104C108.466 5.104 107.879 5.36 107.463 5.872C107.058 6.384 106.855 7.11467 106.855 8.064C106.855 9.01333 107.058 9.74933 107.463 10.272C107.879 10.784 108.466 11.04 109.223 11.04ZM120.394 4.448C120.511 4.192 120.698 4.064 120.954 4.064C121.114 4.064 121.258 4.11733 121.386 4.224C121.514 4.33067 121.578 4.464 121.578 4.624C121.578 4.72 121.557 4.80533 121.514 4.88L117.018 14.576C116.965 14.6933 116.885 14.784 116.778 14.848C116.682 14.912 116.581 14.944 116.474 14.944C116.314 14.944 116.17 14.8907 116.042 14.784C115.925 14.688 115.866 14.56 115.866 14.4C115.866 14.3147 115.887 14.2293 115.93 14.144L117.05 11.728L113.882 4.88C113.839 4.80533 113.818 4.72533 113.818 4.64C113.818 4.48 113.887 4.34133 114.026 4.224C114.175 4.10667 114.335 4.048 114.506 4.048C114.613 4.048 114.714 4.08 114.81 4.144C114.917 4.208 114.997 4.29867 115.05 4.416L117.722 10.416L120.394 4.448Z" fill="#7E92B3"/>
<path d="M94.8398 2.22461C93.4434 1.03125 91.3867 1.25977 90.0918 2.58008L89.6094 3.08789L89.1016 2.58008C87.832 1.25977 85.75 1.03125 84.3535 2.22461C82.7539 3.5957 82.6777 6.0332 84.0996 7.50586L89.0254 12.584C89.3301 12.9141 89.8633 12.9141 90.168 12.584L95.0938 7.50586C96.5156 6.0332 96.4395 3.5957 94.8398 2.22461Z" fill="#EB6453"/>
</svg>
