<svg width="1579" height="1002" viewBox="0 0 1579 1002" fill="none" xmlns="http://www.w3.org/2000/svg">
<path opacity="0.7" d="M1541.81 304.617L1540.39 301.056L1536.63 300.337L21.3123 11.1241L10.2616 9.01494L13.2518 19.8605C35.5047 100.573 48.4273 191.985 61.7767 286.415C67.9354 329.98 74.1849 374.188 81.4833 418.284C104.495 557.318 137.899 694.588 212.409 802.535C297.791 926.233 475.81 979.697 664.982 964.466C783.253 964.402 846.194 924.471 896.643 881.19C906.44 872.785 915.678 864.362 924.688 856.148C962.254 821.898 995.853 791.266 1049.47 780.578C1082.99 773.897 1116.85 774.249 1151.89 776.014C1159.74 776.409 1167.66 776.877 1175.65 777.349C1203.08 778.97 1231.3 780.637 1260 779.569C1334.88 776.784 1413.75 755.413 1499.12 668.138C1566.27 599.484 1576.56 508.002 1570.51 434.737C1567.48 398.011 1560.33 365.546 1553.94 342.271C1550.74 330.625 1547.73 321.257 1545.51 314.781C1544.39 311.542 1543.48 309.025 1542.84 307.306C1542.52 306.446 1542.27 305.786 1542.1 305.335C1542.01 305.109 1541.94 304.936 1541.89 304.816L1541.84 304.676L1541.82 304.636L1541.82 304.624C1541.82 304.62 1541.81 304.617 1535.31 307.213L1541.81 304.617Z" stroke="url(#paint0_linear)" stroke-width="14"/>
<path d="M1501.31 297.372C1501.31 297.372 1587.32 512.711 1461.5 641.289C1299.22 807.137 1163.5 721.5 1030.5 748C897.5 774.5 884.956 925.5 660 925.5C478.206 940.197 309.07 888.682 228.5 772C86.3091 566.078 100.091 246.748 37 18.0001L1501.31 297.372Z" fill="url(#paint1_linear)" fill-opacity="0.2"/>
<path d="M270.053 937.365C270.053 937.365 260.043 925.686 269.436 918.263C269.436 918.263 276.297 914.111 281.893 914.443C281.893 914.443 273.958 927.737 276.53 929.06C279.101 930.382 284.294 913.611 284.294 913.611C284.294 913.611 299.91 912.095 304.932 914.51C304.932 914.51 291.585 925.433 294.394 926.083C297.203 926.732 311.624 916.012 311.624 916.012C311.624 916.012 326.156 918.486 325.38 927.352C324.604 936.218 319.599 938.954 317.398 938.716C315.197 938.478 302.323 933.568 302.043 935.372C301.764 937.176 309.511 943.066 314.939 943.342C314.939 943.342 304.691 954.641 297.894 951.382C291.097 948.123 290.503 942.951 286.257 941.011C282.01 939.072 278.39 939.078 280.141 941.056C281.893 943.033 289.578 944.955 292.005 949.249C294.432 953.542 296.61 956.437 289.563 955.379C282.516 954.321 271.067 949.163 270.564 943.26L270.053 937.365Z" fill="#4E92F9"/>
<path d="M318.239 927.599C318.239 927.599 278.772 926.077 270.045 937.365C270.045 937.365 268.117 943.139 262.186 948.396L261.261 950.915C261.261 950.915 268.102 943.706 270.547 943.274C270.556 943.268 266.73 929.283 318.239 927.599Z" fill="#3A49CD"/>
<path d="M262.197 948.396C262.197 948.396 253.725 954.662 253.137 965.855L254.674 965.993C254.674 965.993 257.381 954.418 262.271 949.892C267.161 945.367 262.197 948.396 262.197 948.396Z" fill="#3A49CD"/>
<path d="M235.056 922.68C235.056 922.68 250.978 913.761 243.546 901.659C243.546 901.659 237.601 894.227 231.233 892.317C231.233 892.317 234.63 910.364 231.233 910.79C227.836 911.216 228.882 890.407 228.882 890.407C228.882 890.407 212.108 882.337 205.528 882.975C205.528 882.975 215.931 900.607 212.534 900.172C209.137 899.738 197.458 881.914 197.458 881.914C197.458 881.914 180.261 878.729 177.501 888.92C174.742 899.112 179.2 904.201 181.748 904.845C184.296 905.489 200.644 905.268 200.221 907.393C199.797 909.518 188.76 912.912 182.588 911.002C182.588 911.002 189.383 927.776 198.299 926.926C207.215 926.077 209.977 920.555 215.499 920.132C221.021 919.709 225.053 921.193 222.293 922.68C219.534 924.167 210.189 923.165 205.731 926.956C201.273 930.747 197.664 933.083 205.942 934.782C214.221 936.48 229.085 935.419 232.058 929.048L235.056 922.68Z" fill="#4E92F9"/>
<path d="M185.371 892.106C185.371 892.106 229.96 906.544 235.055 922.668C235.055 922.668 234.841 929.886 239.299 938.167V941.353C239.299 941.353 234.629 930.523 232.081 929.036C232.081 929.048 242.061 915.036 185.371 892.106Z" fill="#93B3F4"/>
<path d="M239.299 938.178C239.299 938.178 246.175 948.62 242.255 961.329L240.492 960.853C240.492 960.853 242.211 946.856 238.614 939.815C235.017 932.774 239.299 938.178 239.299 938.178Z" fill="#93B3F4"/>
<path d="M260.387 910.381C260.387 910.381 239.396 898.626 249.193 882.672C249.193 882.672 257.028 872.877 265.427 870.359C265.427 870.359 260.948 894.148 265.427 894.706C269.905 895.265 268.504 867.841 268.504 867.841C268.504 867.841 290.614 857.202 299.289 858.043C299.289 858.043 285.577 881.259 290.053 880.715C294.529 880.171 309.925 856.644 309.925 856.644C309.925 856.644 332.597 852.445 336.235 865.88C339.873 879.316 333.996 886.031 330.651 886.872C327.307 887.712 305.743 887.43 306.301 890.228C306.86 893.025 321.415 897.507 329.517 894.988C329.517 894.988 320.56 917.096 308.805 915.977C297.05 914.857 293.412 907.581 286.136 907.022C278.86 906.464 273.541 908.421 277.182 910.381C280.823 912.341 293.133 911.022 299.01 916.018C304.888 921.014 309.645 924.093 298.716 926.333C287.787 928.572 268.21 927.173 264.292 918.777L260.387 910.381Z" fill="#4E92F9"/>
<path d="M325.879 870.077C325.879 870.077 267.105 889.111 260.387 910.382C260.387 910.382 260.681 919.897 254.804 930.811V935.011C254.804 935.011 260.975 920.738 264.322 918.777C264.307 918.777 251.151 900.305 325.879 870.077Z" fill="#3A49CD"/>
<path d="M254.788 930.811C254.788 930.811 245.725 944.576 250.895 961.33L253.225 960.704C253.225 960.704 250.962 942.249 255.702 932.968C260.442 923.688 254.788 930.811 254.788 930.811Z" fill="#3A49CD"/>
<path d="M259.682 997.664C265.082 997.664 270.429 996.6 275.417 994.534C280.406 992.467 284.938 989.439 288.756 985.62C292.574 981.802 295.603 977.269 297.669 972.281C299.735 967.292 300.798 961.945 300.798 956.545H218.564C218.564 961.945 219.627 967.292 221.693 972.281C223.759 977.27 226.788 981.803 230.606 985.621C234.425 989.44 238.958 992.468 243.947 994.535C248.935 996.601 254.282 997.664 259.682 997.664Z" fill="#EFAB18"/>
<path d="M269.797 997.349C264.012 998.069 258.14 997.552 252.57 995.83C247 994.109 241.859 991.224 237.489 987.366C233.118 983.508 229.617 978.765 227.219 973.451C224.82 968.138 223.577 962.375 223.574 956.545H233.789C233.789 966.566 237.448 976.242 244.079 983.755C250.709 991.269 259.854 996.103 269.797 997.349Z" fill="#FFCF69"/>
<path d="M301.367 999.756H217.993C217.994 998.411 218.529 997.121 219.481 996.17C220.432 995.218 221.723 994.684 223.068 994.684H296.286C297.632 994.684 298.922 995.218 299.874 996.17C300.826 997.121 301.361 998.411 301.361 999.756H301.367Z" fill="#EFAB18"/>
<path d="M301.735 956.545H217.212V957.806H301.735V956.545Z" fill="#EFAB18"/>
<path d="M666.415 985.839C666.415 985.839 667.267 999.583 669.923 999.78C670.279 999.806 683.412 999.806 683.412 999.806L700.163 999.706C700.163 999.706 700.054 995.669 695.167 994.813C690.28 993.958 682.063 990.517 679.095 984.04C675.971 977.225 666.415 985.839 666.415 985.839Z" fill="#060632"/>
<path d="M657.465 823.293C657.465 823.293 665.379 827.792 667.595 827.792C669.811 827.792 678.506 826.111 680.931 827.348C683.355 828.586 687.743 833.573 688.571 835.201C690.041 838.139 682.612 836.835 679.094 834.34C678.842 834.16 678.554 834.035 678.251 833.973C677.947 833.91 677.634 833.912 677.331 833.978C675.509 834.375 671.724 835.062 669.896 834.387C667.439 833.479 654.497 832.468 654.497 832.468L657.465 823.293Z" fill="#FFF0F0"/>
<path d="M597.252 762C597.252 762 605.454 820.313 619.04 825.535C625.743 828.112 655.371 833.954 664.134 834.542C664.134 834.542 666.279 832.799 665.756 825.726C665.756 825.726 634.718 814.33 630.309 808.135C623.747 798.91 634.383 770.455 626.148 761.794C617.914 753.134 604.043 749.393 597.252 762Z" fill="#B78EC6"/>
<path d="M600.014 884.853C602.422 888.852 605.101 892.681 608.031 896.314C616.847 907.446 626.448 916.626 628.12 925.301C628.5 927.188 629.017 929.045 629.669 930.855C630.368 932.842 631.229 934.931 632.228 937.091C635.969 945.22 641.565 954.327 647.151 962.608C656.811 976.917 665.891 988.86 665.891 988.86L682.548 988.151C681.881 986.479 674.613 966.719 664.898 942.572C660.954 932.769 656.758 922.339 652.708 912.286L651.095 908.277C649.858 905.2 648.641 902.171 647.451 899.223C638.326 876.545 631.059 858.49 631.059 858.49C631.059 858.49 594.587 844.678 590.799 853.626C587.678 861.014 590.22 868.255 600.014 884.853Z" fill="#003E98"/>
<path d="M627.847 946.575C627.847 946.575 616.26 954.018 617.385 956.437C617.535 956.757 623.935 968.224 623.935 968.224L632.193 982.815C632.193 982.815 635.667 980.758 634.024 976.056C632.381 971.354 631.379 962.538 635.596 956.772C640.025 950.721 627.847 946.575 627.847 946.575Z" fill="#060632"/>
<path d="M633.512 959.649C633.512 959.649 626.274 953.263 624.989 948.579C624.989 948.579 654.823 912.835 661.294 904.821C661.588 904.454 661.517 904.051 661.124 903.608C656.24 898.1 601.956 886.901 594.862 875.863C592.747 872.621 591.197 869.044 590.277 865.284C588.67 858.548 589.942 853.896 589.942 853.896L644.153 852.327C644.153 852.327 689.288 880.433 694.405 899.596C699.521 918.76 633.512 959.649 633.512 959.649Z" fill="#164D9D"/>
<path d="M661.131 903.617C656.247 898.109 601.963 886.91 594.869 875.872C592.754 872.63 591.204 869.053 590.285 865.293V858.443L613.327 854.819C613.327 854.819 619.86 874.923 639.211 882.464C657.337 889.525 660.77 902.05 661.131 903.617Z" fill="#003E98"/>
<path d="M629.325 758.327C618.355 761.16 600.179 751 600.179 751C600.179 751 607.232 746.254 609.853 735.834C609.984 735.309 610.104 734.77 610.211 734.218C611.361 733.974 613.526 733.512 615.845 733.024L624.22 740.527C624.22 740.527 624.029 743.645 622.983 748.999C622.801 749.934 622.59 750.936 622.351 752.006C625.043 753.668 627.407 755.811 629.325 758.327Z" fill="#FFF0F0"/>
<path d="M588.566 803.786C590.138 824.912 588.072 857.044 589.853 862.61C591.39 867.412 608.914 864.558 615.911 862.954C618.497 862.366 621.632 861.514 624.874 860.512C633.907 857.714 643.749 853.72 644.807 850.755C644.848 850.644 644.88 850.53 644.904 850.414C644.994 850.004 644.987 849.578 644.883 849.171C644.534 847.661 643.176 846.024 643.017 842.283C642.838 838.104 642.864 833.173 642.706 827.883C642.706 827.295 642.691 826.637 642.626 826.043V825.826V825.488C642.477 819.587 642.168 813.383 641.809 807.233C641.583 803.368 641.319 799.542 641.016 795.875C640.228 786.409 639.168 777.993 637.76 772.659C635.465 763.987 630.413 758.33 625.791 754.183L622.458 751.324C618.738 752.138 614.341 751.597 610.362 749.713C606.057 747.656 604.57 746.205 603.818 746.757C593.864 754.448 586.712 777.957 588.566 803.786Z" fill="#CCABD8"/>
<path d="M624.873 860.512C633.907 857.714 643.749 853.72 644.807 850.755C644.848 850.644 644.88 850.53 644.904 850.414C644.904 850 644.903 849.585 644.883 849.171C644.533 847.661 643.176 846.024 643.017 842.283C642.838 838.104 642.864 833.173 642.705 827.883C642.705 827.295 642.691 826.637 642.626 826.043V825.826V825.488L606.095 778.968C606.095 778.968 581.545 830.09 624.873 860.512Z" fill="#B78EC6"/>
<path d="M624.232 740.527C624.232 740.527 624.041 743.645 622.994 748.999C614.813 746.354 611.104 738.966 609.864 735.834C609.996 735.309 610.115 734.77 610.223 734.218C611.372 733.974 613.538 733.512 615.856 733.024L624.232 740.527Z" fill="#FFDCDB"/>
<path d="M625.321 745.25C625.321 745.25 607.481 742.273 609.508 731.194C611.536 720.115 610.593 712.266 622.068 713.697C633.544 715.128 634.978 719.762 635.201 723.624C635.425 727.485 630.015 745.74 625.321 745.25Z" fill="#FFF0F0"/>
<path d="M695.528 840.073L697.101 840.584L710.485 799.393L708.911 798.882L695.528 840.073Z" fill="#3A49CD"/>
<path d="M651.654 839.643L697.094 840.611L697.152 837.893L651.712 836.926L651.654 839.643Z" fill="#3A49CD"/>
<path d="M652.582 841.769C652.582 841.769 667.182 845.618 672.659 845.213C678.137 844.807 682.686 842.206 683.377 840.846C684.067 839.485 685.513 837.075 681.784 837.522C678.055 837.969 672.968 838.759 672.809 838.042C672.65 837.325 675.848 837.393 675.848 837.393C675.848 837.393 676.815 835.988 675.598 835.923C674.381 835.859 670.834 834.91 669.515 835.568C668.195 836.226 666.979 838.662 666.018 838.56C665.057 838.457 653.799 833.49 653.799 833.49L652.582 841.769Z" fill="#FFF0F0"/>
<path d="M600.872 764.395C600.872 764.395 602.597 823.255 615.524 829.928C621.901 833.229 650.704 842.303 659.349 843.852C659.349 843.852 661.674 842.356 661.935 835.253C661.935 835.253 632.343 820.507 628.643 813.86C623.139 803.971 636.845 776.861 629.616 767.343C622.386 757.824 609.012 752.611 600.872 764.395Z" fill="#CCABD8"/>
<path d="M609.853 735.834C609.853 735.834 609.65 732.031 611.996 729.853C611.996 729.853 611.179 726.033 612.686 725.413C614.194 724.793 614.508 727.99 615.199 727.488C615.889 726.985 618.969 724.596 620.289 721.078C621.608 717.561 633.683 721.822 635.091 722.454C636.498 723.086 641.021 720.764 641.903 718.88C641.903 718.88 639.387 716.867 638.259 715.354C637.13 713.84 629.21 703.67 618.152 706.558C607.094 709.447 605.586 714.728 606.215 719.251C606.844 723.773 605.325 734.314 609.853 735.834Z" fill="#120E59"/>
<path d="M274.54 758.429L284.058 757.521C284.43 757.485 284.804 757.57 285.124 757.762C285.444 757.955 285.694 758.246 285.836 758.591L293.024 775.885C293.126 776.138 293.167 776.411 293.146 776.683C293.124 776.954 293.039 777.217 292.899 777.45C292.759 777.684 292.566 777.882 292.337 778.028C292.107 778.175 291.846 778.266 291.576 778.295L281.672 779.241C281.295 779.275 280.916 779.186 280.593 778.987C280.271 778.789 280.02 778.491 279.88 778.139L273.079 760.801C272.985 760.549 272.95 760.28 272.976 760.012C273.001 759.745 273.088 759.487 273.229 759.258C273.37 759.029 273.561 758.835 273.789 758.692C274.016 758.548 274.273 758.459 274.54 758.429Z" fill="#0D0D38"/>
<path d="M395.214 986.979L390.165 989.659C390.165 989.659 362.856 960.704 356.291 932.918C355.115 927.955 354.648 923.062 355.148 918.422C355.148 918.422 354.751 917.164 354.057 914.936C354.025 914.839 353.996 914.739 353.963 914.643C353.669 913.667 353.296 912.518 352.891 911.219C351.571 907.019 349.761 901.274 347.698 894.733C342.943 879.681 332.073 845.73 327.421 831.609L360.808 819.528C360.808 819.528 364.601 828.177 370.05 851.681C370.89 854.749 371.731 858.146 372.515 861.837C373.397 866.025 374.237 870.603 374.928 875.546C376.225 884.872 376.894 894.274 376.929 903.69C376.95 907.895 376.847 912.256 376.597 916.755C376.415 920.056 376.891 924.452 377.823 929.454C382.037 952.302 395.214 986.979 395.214 986.979Z" fill="#164D9D"/>
<path d="M413.497 999.756H386.505C386.505 999.756 385.497 995.451 387.269 992.521C388.839 989.929 388.236 988.454 387.075 986.309C388.508 986.929 390.061 987.221 391.622 987.164C392.967 987.088 394.39 986.476 395.636 985.753C396.811 987.076 401.772 992.715 403.326 993.832C405.087 995.099 412.954 994.649 413.497 999.756Z" fill="#0D0D38"/>
<path d="M374.934 875.528L353.963 914.613C353.669 913.638 353.296 912.489 352.891 911.19C351.571 906.99 349.761 901.245 347.698 894.703C342.943 879.651 332.073 845.701 327.421 831.58L360.808 819.499C360.808 819.499 364.601 828.148 370.05 851.651C370.89 854.719 371.731 858.117 372.515 861.808C373.412 866.007 374.243 870.585 374.934 875.528Z" fill="#003E98"/>
<path d="M284.034 789.309C283.867 789.456 275.868 781.275 271.595 776.744L275.874 774.14L299.239 788.807L284.034 789.309Z" fill="#FFF1F0"/>
<path d="M326.888 991.307C326.888 991.307 326.259 995.892 328.016 999.756H339.192C339.192 999.756 339.277 996.418 336.427 992.227C333.576 988.037 326.888 991.307 326.888 991.307Z" fill="#0D0D38"/>
<path d="M348.925 692.949C349.078 692.235 350.982 684.58 362.863 686.229C362.863 686.229 356.936 685.911 355.487 688.286C355.487 688.286 359.989 685.82 363.033 687.404C366.078 688.988 366.986 694.948 366.683 696.808C366.381 698.668 363.548 704.337 361.417 704.49C360.571 704.515 359.729 704.37 358.94 704.064C359.365 705.076 359.73 706.114 360.033 707.17C363.063 717.664 356.557 726.271 352.751 724.532C350.309 723.418 348.825 727.658 348.825 727.658L327.469 703.208C327.469 703.208 339.888 685.899 348.925 692.949Z" fill="#12123C"/>
<path d="M327.069 758.515C329.855 760.448 333.349 762.041 337.734 763.055C354.17 766.852 360.471 752.958 362.836 743.422C361.114 742.47 359.212 741.888 357.253 741.711C356.077 741.57 354.814 741.479 353.779 741.417C351.934 740.004 349.183 734.218 348.575 725.234L347.802 725.443L334.848 728.987C334.848 728.987 335.436 733.101 335.73 736.998C335.953 740.045 335.988 742.954 335.412 743.665C334.401 743.886 333.796 744.03 333.796 744.03C331.096 748.632 328.843 753.482 327.069 758.515Z" fill="#FFF1F0"/>
<path d="M334.862 728.998C334.862 728.998 335.45 733.113 335.743 737.009C343.09 736.275 346.49 729.286 347.816 725.454L334.862 728.998Z" fill="#FFDCDB"/>
<path d="M332.671 732.866C332.671 732.866 350.092 731.905 349.325 721.064C348.558 710.223 350.295 702.8 339.14 702.956C327.984 703.111 326.118 707.399 325.492 711.078C324.866 714.757 328.119 732.836 332.671 732.866Z" fill="#FFF1F0"/>
<path d="M325.577 705.016C328.034 701.563 330.117 702.133 331.325 703.032C340.462 697.119 347.144 704.41 347.144 704.41C348.866 712.104 354.785 716.165 354.785 716.165C354.785 716.165 351.755 718.351 344.308 716.997C342.034 716.582 339.927 715.139 338.093 713.335C340.248 716.345 342.804 719.048 345.69 721.366C336.668 717.958 332.289 706.062 331.848 704.801C330.855 705.832 328.91 708.054 328.416 710.132C327.749 712.953 327.764 718.654 326.094 718.589C326.103 718.581 321.895 710.194 325.577 705.016Z" fill="#12123C"/>
<path d="M329.854 743.166C329.854 743.166 358.233 736.275 370.573 746.454L364.401 832.462L308.901 819.052C308.901 819.052 310.461 813.61 321.105 799.137C331.749 784.664 327.121 763.44 329.854 743.166Z" fill="#FFF1F0"/>
<path d="M346.395 822.887C346.395 822.887 346.363 823.181 346.307 823.734C346.28 823.972 346.248 824.263 346.213 824.598C345.975 826.828 345.522 831.104 344.937 836.667C343.415 851.252 341.026 874.682 339.398 893.172C338.123 907.631 337.314 919.074 337.752 920.911C339.066 926.439 337.752 992.536 337.752 992.536C333.033 994.799 325.88 992.536 325.88 992.536C325.88 992.536 313.317 932.974 315.074 924.696C316.832 916.418 313.899 909.35 313.899 909.35C304.142 863.915 305.212 838.733 307.14 826.678C307.513 824.191 308.071 821.735 308.809 819.331C308.993 818.715 309.216 818.11 309.476 817.521C331.005 811.714 346.395 822.887 346.395 822.887Z" fill="#164D9D"/>
<path d="M364.405 832.459C358.227 835.04 351.629 836.466 344.936 836.667C339.554 836.822 334.174 836.312 328.917 835.147C318.276 832.832 310.171 828.547 307.147 826.678C307.52 824.191 308.078 821.735 308.817 819.331C315.367 814.665 331.568 819.129 344.801 824.077L346.212 824.612C356.347 828.474 364.405 832.459 364.405 832.459Z" fill="#003E98"/>
<path d="M374.396 770.984C373.027 781.331 367.546 793.994 365.58 800.809C365.58 800.809 368.851 824.471 365.727 830.966C365.371 831.709 364.934 832.227 364.396 832.459C352.823 837.502 307.752 832.606 305.848 818.059C305.157 812.769 323.016 794.194 324.068 791.94C324.5 791.005 324.949 787.984 322.866 781.719C319.898 790.867 314.417 801.435 308.904 803.236C302.844 805.217 278.885 787.367 278.885 787.367C278.885 787.367 278.747 785.198 281.777 783.147C283.725 781.828 288.198 781.384 288.198 781.384L303.517 788.24C305.439 784.949 310.229 762.191 315.566 751.918C319.589 744.195 330.324 743.075 330.324 743.075C330.324 743.075 334.791 750.163 345.606 749.158C356.42 748.153 358.389 741.538 358.389 741.538C358.389 741.538 367.972 742.811 370.926 745.194C371.44 745.614 376.195 757.431 374.396 770.984Z" fill="#CCABD8"/>
<path d="M367.014 800.997C367.014 800.997 368.862 824.471 365.738 830.966C357.307 826.734 346.316 817.601 349.66 803.324C354.518 782.586 374.398 770.999 374.398 770.999C373.029 781.331 368.971 794.182 367.014 800.997Z" fill="#B78EC6"/>
<path d="M358.394 784.905C358.394 784.905 346.389 786.644 345.431 787.55C344.473 788.455 341.161 793.653 341.57 795.464C341.978 797.274 341.937 799.143 342.672 799.014C343.407 798.884 345.802 794.282 346.71 794.071C347.618 793.859 348.361 793.239 348.473 793.644C348.585 794.05 346.63 795.995 346.724 796.533C346.818 797.071 348.358 796.439 349.049 795.372C349.74 794.306 351.462 793.774 351.723 793.11C351.985 792.446 353.169 790.241 354.785 790.341C356.402 790.441 358.394 784.905 358.394 784.905Z" fill="#FFF1F0"/>
<path d="M370.072 784.431L358.393 784.904L354.396 790.35L370.28 790.882L370.072 784.431Z" fill="#FFF1F0"/>
<path d="M358.392 741.544C358.392 741.544 372.31 743.195 376.142 749.164C380.988 756.711 398.109 781.74 397.741 789.313C397.741 789.313 387.074 793.562 358.401 791.285C358.401 791.285 357.881 786.947 363.911 783.468C363.911 783.468 379.307 781.36 381.003 779.865L369.574 767.719L358.392 741.544Z" fill="#CCABD8"/>
<path d="M272.462 758.618L281.978 757.71C282.349 757.676 282.722 757.762 283.042 757.954C283.362 758.147 283.613 758.435 283.758 758.779L290.944 776.074C291.049 776.326 291.093 776.6 291.074 776.872C291.054 777.145 290.97 777.409 290.829 777.644C290.689 777.878 290.495 778.076 290.264 778.222C290.032 778.368 289.77 778.457 289.498 778.483L279.591 779.43C279.214 779.463 278.836 779.374 278.513 779.175C278.19 778.977 277.939 778.68 277.799 778.328L271.013 760.992C270.915 760.741 270.876 760.471 270.899 760.203C270.923 759.934 271.008 759.675 271.148 759.445C271.288 759.215 271.48 759.021 271.708 758.877C271.936 758.734 272.194 758.645 272.462 758.618Z" fill="#120E59"/>
<path d="M271.601 776.744C271.601 776.744 269.089 772.409 269.277 771.342C269.465 770.276 272.065 765.321 273.391 764.827C275.777 763.946 279.13 763.405 278.207 765.918C277.599 767.578 275.192 769.982 275.613 770.734C276.033 771.486 275.868 774.14 275.868 774.14L271.601 776.744Z" fill="#FFF1F0"/>
<path d="M650.535 963.427C646.955 985.158 623.551 998.997 599.545 998.997H552L555.719 872.332C555.719 872.332 601.084 858.537 612.464 871.66C622.447 883.158 649.518 928.67 650.943 955.608C651.09 958.221 650.954 960.841 650.535 963.427Z" fill="#A8C5EF"/>
<path d="M530.648 885.57C530.648 885.57 591.774 854.375 603.346 874.752C609.491 885.573 626.406 928.742 627.655 955.831C628.869 982.156 606.064 999.462 582.605 999.462H540.94L530.648 885.57Z" fill="#3662C1"/>
<path d="M542.14 902.873C541.625 905.518 536.676 907.986 529.333 910.161C528.04 910.552 526.675 910.928 525.239 911.286C500.245 917.672 455.977 921.234 451.757 919.353C445.926 916.749 410.139 789.6 410.139 789.6C410.139 789.6 444.301 788.316 471.431 787.69C480.712 787.478 489.169 787.343 495.155 787.361C495.844 787.361 496.531 787.409 497.213 787.505C499.529 787.779 501.671 788.875 503.249 790.593C507.619 795.295 508.7 804.558 512.744 814.805C516.743 824.941 521.651 837.586 526.306 850.138C527.505 853.37 528.689 856.603 529.832 859.777C530.155 860.676 530.476 861.568 530.793 862.454C537.676 881.702 542.974 898.579 542.14 902.873Z" fill="#BED2FA"/>
<path d="M650.908 963.692C647.496 985.548 625.194 999.465 602.319 999.465H580.097C594.917 989.421 608.317 958.473 650.908 963.692Z" fill="#8EB0E1"/>
<path d="M530.794 862.454C529.66 862.269 528.194 862.028 526.533 861.746C526.213 861.437 525.948 861.077 525.749 860.679C525.079 859.21 525.537 854.984 526.304 850.138C521.649 837.587 516.742 824.942 512.742 814.806C508.698 804.559 507.617 795.287 503.247 790.594C501.669 788.875 499.528 787.779 497.211 787.505C493.605 787.555 489.796 787.617 485.87 787.691C484.474 790.459 482.071 793.068 477.915 795.255C459.381 805.011 473.131 825.115 473.131 825.115C473.263 825.206 480.478 839.562 480.478 839.562C480.451 838.56 481.424 836.764 483.09 834.481C484.322 843.062 486.323 851.819 488.709 858.099C487.401 864.726 484.043 874.597 482.244 882.146C480.804 888.171 480.36 892.708 482.738 892.931C483.031 892.957 483.326 892.957 483.619 892.931C483.474 895.225 483.975 897.512 485.065 899.535C489.711 908.512 512.057 910.114 529.325 910.161C536.672 907.986 541.618 905.524 542.132 902.873C542.972 898.58 537.674 881.703 530.794 862.454Z" fill="#93B3F4"/>
<path d="M615.24 979.893C606.495 992.042 593.08 999.833 578.136 999.583L513.896 999.615H483.116L517.746 885.593C517.746 885.593 605.396 876.874 616.193 888.503C621.212 893.901 624.03 918.348 625.596 942.992C626.505 956.88 622.461 969.872 615.24 979.893Z" fill="#5076C9"/>
<path d="M615.242 979.894C606.497 992.042 593.081 999.833 578.138 999.583L513.898 999.615C521.456 993.268 545.23 975.262 570.688 976.106C589.984 976.77 605.306 976.491 615.242 979.894Z" fill="#3662C1"/>
<path d="M536.268 805.763C536.268 805.763 541.605 813.663 544.649 830.266C547.315 844.807 549.645 850.176 553.504 853.159C557.362 856.142 578.806 864.946 578.806 864.946L577.201 868.705C577.201 868.705 545.757 864.42 542.231 859.166C538.704 853.911 525.233 822.861 526.277 815.711C527.32 808.561 536.268 805.763 536.268 805.763Z" fill="#FFECEC"/>
<path d="M613.25 979.221C612.956 982.289 617.235 983.041 622.181 983.279C627.127 983.517 625.631 984.54 632.408 985.765C639.184 986.99 641.9 985.139 642.399 984.222C642.837 983.411 639.684 982.142 636.328 980.696C635.905 980.516 635.482 980.331 635.058 980.146C631.279 978.486 629.16 975.098 626.213 971.953C623.424 968.979 620.773 959.449 620.773 959.449L611.566 957.483C611.566 957.483 614.152 966.058 615.049 969.72C615.578 971.874 614.796 974.281 614.105 976.114C613.682 977.106 613.394 978.151 613.25 979.221Z" fill="#FDB3B1"/>
<path d="M622.176 983.279C627.122 983.526 625.626 984.54 632.403 985.765C639.18 986.991 641.895 985.139 642.394 984.222C642.832 983.411 639.679 982.142 636.323 980.696L636.27 980.755C632.922 981.721 629.375 981.762 626.005 980.875C621.524 979.659 617.189 976.981 614.101 976.115C613.681 977.104 613.396 978.146 613.254 979.212C612.969 982.277 617.236 983.035 622.176 983.279Z" fill="#060632"/>
<path d="M521.564 870.018C521.564 870.018 582.754 865.413 594.274 872.684C605.794 879.954 624.272 964.645 624.272 964.645C624.272 964.645 623.129 965.559 620.584 965.82C618.216 966.076 612.999 964.683 612.999 964.683C612.999 964.683 586.445 926.791 584.576 917.246C582.707 907.701 583.163 899.182 578.904 898.956C574.646 898.729 521.556 905.421 513.527 891.262C505.499 877.104 512.134 863.109 512.134 863.109L521.564 870.018Z" fill="#B78EC6"/>
<path d="M589.849 989.051C589.556 992.116 593.837 992.871 598.78 993.109C603.723 993.347 602.23 994.367 609.01 995.595C615.789 996.823 618.499 994.966 619.001 994.052C619.439 993.238 616.289 991.969 612.93 990.526C612.51 990.347 612.087 990.161 611.663 989.976C607.884 988.313 605.762 984.925 602.818 981.783C600.026 978.806 597.378 969.279 597.378 969.279L588.168 967.31C588.168 967.31 590.754 975.888 591.651 979.55C592.18 981.704 591.401 984.111 590.71 985.941C590.286 986.935 589.997 987.981 589.849 989.051Z" fill="#FDB3B1"/>
<path d="M598.766 993.109C603.711 993.356 602.216 994.367 608.995 995.595C615.775 996.823 618.484 994.966 618.987 994.052C619.425 993.238 616.274 991.969 612.915 990.526L612.865 990.582C609.518 991.549 605.971 991.592 602.601 990.705C598.116 989.486 593.784 986.808 590.696 985.941C590.276 986.933 589.991 987.975 589.847 989.042C589.556 992.116 593.823 992.856 598.766 993.109Z" fill="#060632"/>
<path d="M509.581 873.815C509.581 873.815 563.947 876.389 575.167 884.1C586.387 891.812 601.56 977.152 601.56 977.152C601.56 977.152 600.384 978.033 597.831 978.198C595.453 978.362 590.296 976.767 590.296 976.767C590.296 976.767 565.237 937.87 563.742 928.26C562.246 918.651 563.03 910.155 558.784 909.746C554.538 909.338 501.229 913.964 493.756 899.514C486.283 885.064 509.581 873.815 509.581 873.815Z" fill="#CCABD8"/>
<path d="M528.95 754.198C526.537 752.605 523.543 752.25 521.433 752.235C522.021 751.712 523.09 751.579 523.09 751.579C521.8 751.286 518.806 752.396 518.806 752.396C501.144 744.203 496.516 770.705 496.472 776.932C496.427 783.159 496.004 790.297 486.586 795.255C468.051 805.011 481.802 825.115 481.802 825.115C481.934 825.206 489.148 839.564 489.148 839.564C489.025 834.522 513.91 809.619 526.499 802.504C529.732 798.39 531.278 790.808 531.395 790.212C530.487 796.233 529.223 799.563 528.163 801.414C539.024 792.692 535.345 758.418 528.95 754.198Z" fill="#A83F3F"/>
<path d="M507.285 796.665C507.285 796.665 512.087 796.874 517.148 797.353C520.586 797.679 524.256 798.058 526.196 798.869C530.986 800.871 530.483 809.355 520.43 807.782C510.377 806.21 506.592 799.196 507.285 796.665Z" fill="#FDB3B1"/>
<path d="M525.782 802.851C525.84 802.88 527.213 810.148 520.633 809.857C516.31 809.666 506.991 804.438 507.814 800.747C508.205 798.984 511.47 794.426 512.128 783.996L512.913 784.205L526.137 787.752C526.137 787.752 525.549 791.951 525.276 795.925C525.05 799.266 525.041 802.443 525.782 802.851Z" fill="#FFF0F0"/>
<path d="M526.141 787.758C526.141 787.758 525.553 791.957 525.28 795.931C517.795 795.219 514.286 788.111 512.914 784.211L526.141 787.758Z" fill="#FFDCDB"/>
<path d="M511.629 782.659C511.629 782.659 508.102 776.194 507.515 770.813C507.091 766.993 509.96 753.055 523.948 756.02C526.764 756.602 529.414 757.807 531.703 759.546C534.642 761.821 538.756 766.599 532.993 778.522L531.433 782.577L511.629 782.659Z" fill="#A83F3F"/>
<path d="M528.393 791.687C528.393 791.687 510.628 790.805 511.348 779.744C512.068 768.683 510.267 761.13 521.634 761.23C533.001 761.33 534.932 765.694 535.587 769.459C536.242 773.223 533.033 791.634 528.393 791.687Z" fill="#FFF0F0"/>
<path d="M529.747 761.5C529.747 761.5 524.025 774.137 516.44 775.562C508.856 776.987 505.755 774.769 505.755 774.769C505.755 774.769 511.78 770.607 513.493 762.755C513.493 762.755 526.494 755.082 529.747 761.5Z" fill="#A83F3F"/>
<path d="M528.475 762.461C528.475 762.461 531.91 765.6 532.606 768.474C533.303 771.348 533.315 777.167 535.016 777.084C535.016 777.084 539.265 768.512 535.483 763.252C531.475 757.683 528.475 762.461 528.475 762.461Z" fill="#A83F3F"/>
<path d="M546.167 870.947C544.73 872.666 540.243 873.195 535.444 873.983C531.671 874.606 527.703 875.387 524.885 877.045C518.482 880.803 497.555 893.502 491.428 892.931C489.048 892.708 489.494 888.171 490.934 882.149C493.2 872.64 497.946 859.433 497.946 853.691C497.946 850.555 498.989 843.138 500.382 834.66C500.494 833.975 500.609 833.287 500.726 832.603C503.48 816.117 507.294 796.677 507.294 796.677C507.294 796.677 511.549 805.955 519.839 805.955C528.13 805.955 526.205 798.875 526.205 798.875C526.205 798.875 533.769 799.757 535.556 801.69C537.342 803.624 541.877 811.938 542.776 814.206C542.776 814.206 542.958 817.092 535.808 818.468C535.808 818.468 537.551 826.308 537.757 831.533C537.91 835.392 535.112 847.473 534.321 854.987C534.028 857.649 533.998 859.739 534.433 860.685C534.986 861.899 536.784 863.106 538.809 864.294C542.844 866.639 547.875 868.905 546.167 870.947Z" fill="#164D9D"/>
<path d="M538.809 864.288C543.399 872.111 526.363 874.464 523.545 876.119C517.142 879.881 497.558 893.51 491.428 892.931C489.048 892.708 489.494 888.171 490.934 882.149C493.2 872.64 497.946 859.433 497.946 853.691C497.946 850.555 498.989 843.138 500.382 834.66L507.761 827.572C507.761 827.572 515.672 848.013 523.21 851.375C526.795 852.917 530.515 854.124 534.321 854.981C534.028 857.643 533.998 859.733 534.433 860.679C534.986 861.893 536.775 863.1 538.809 864.288Z" fill="#003E98"/>
<path d="M505.026 802.784C505.026 802.784 498.717 798.963 492.613 806.222C486.509 813.48 496.95 865.463 505.993 868.134C516.034 871.1 545.048 867.658 545.048 867.658L544.49 863.124C544.49 863.124 513.604 857.202 512.32 855.554C511.036 853.905 508.235 803.624 505.026 802.784Z" fill="#FFF0F0"/>
<path d="M507.286 796.665C507.286 796.665 494.326 797.841 490.562 802.096C486.797 806.351 485.698 817.912 485.698 817.912C485.698 817.912 497.112 827.125 510.862 823.549L507.286 796.665Z" fill="#164D9D"/>
<path d="M565.196 870.089H548.078V872.111H565.196V870.089Z" fill="#EB6453"/>
<path d="M561.546 871.834C561.714 871.164 577.283 846.717 577.283 846.717H611.928L594.551 871.176L561.546 871.834Z" fill="#EB6453"/>
<path d="M563.005 872.111C563.172 871.441 578.792 846.717 578.792 846.717H611.928L595.395 872.111H563.005Z" fill="#C22511"/>
<path d="M592.214 859.495C592.028 859.995 591.701 860.43 591.273 860.748C590.845 861.067 590.334 861.255 589.802 861.29C588.811 861.29 588.285 860.485 588.626 859.495C588.813 858.995 589.14 858.56 589.568 858.242C589.996 857.924 590.507 857.736 591.039 857.702C592.029 857.702 592.555 858.504 592.214 859.495Z" fill="#CCABD8"/>
<path d="M541.963 862.856C541.963 862.856 552.019 860.908 553.154 861.387C554.288 861.866 560.615 867.558 559.965 868.687C559.316 869.815 556.733 870.632 553.794 869.66C550.855 868.687 544.549 868.19 543.415 866.738C542.28 865.287 541.963 862.856 541.963 862.856Z" fill="#FFF0F0"/>
<path d="M562.007 964.836C558.331 986.033 538.171 999.465 517.506 999.465H475.841L479.1 872.075C479.1 872.075 518.852 858.202 528.838 871.4C537.587 882.963 561.308 928.737 562.557 955.829C562.703 958.842 562.519 961.862 562.007 964.836Z" fill="#A8C5EF"/>
<path d="M562.006 964.836C558.33 986.033 538.171 999.465 517.506 999.465H484.163C499.771 988.886 520.785 959.649 562.006 964.836Z" fill="#8EB0E1"/>
<path d="M497.415 999.371L496.481 999.433C495.823 999.468 495.161 999.489 494.5 999.501H493.839H452.171V999.48L449.764 999.509C445.474 999.562 440.992 999.612 436.834 999.647L434.777 999.665H434.028C429.913 999.692 426.29 999.703 423.698 999.686C420.249 999.68 416.804 999.415 413.395 998.892C409.44 998.301 405.58 997.196 401.91 995.607C400.661 995.056 399.442 994.437 398.261 993.752C396.678 992.842 395.167 991.813 393.741 990.673C390.044 987.734 386.847 983.984 384.128 979.385C382.116 975.93 380.443 972.289 379.132 968.512C377.325 963.413 375.871 957.609 374.751 951.047C373.149 941.681 372.235 930.77 371.959 918.163C371.847 913.085 371.839 907.727 371.933 902.088C372.082 893.076 372.484 883.318 373.14 872.813C374.054 858.043 375.456 841.751 377.305 823.816C378.991 807.435 380.937 795.986 383.77 793.377C387.943 789.53 396.65 787.981 402.707 787.361C406.468 786.976 409.198 786.947 409.198 786.947C416.598 786.947 423.175 792.26 425.549 800.153C430.384 816.228 439.017 844.966 448.001 875.026C448.048 875.176 448.092 875.32 448.139 875.478L449.688 880.668C449.767 880.932 449.847 881.197 449.929 881.461L451.501 880.759L451.557 880.736C453.711 879.781 456.147 878.734 458.777 877.668C460.149 877.115 461.56 876.559 463.012 875.998C467.126 874.42 471.564 872.863 476.063 871.523C478.058 870.935 480.068 870.368 482.067 869.877C484.632 869.239 487.177 868.702 489.657 868.302L489.875 868.267L490.756 868.134C501.456 866.562 510.74 867.652 514.58 874.429C520.725 885.282 537.64 928.575 538.889 955.746C540.044 980.807 519.559 997.711 497.415 999.371Z" fill="#5076C9"/>
<path d="M430.586 886.551C430.586 886.551 409.202 799.43 407.665 792.107C406.977 788.842 404.855 787.664 402.722 787.361C406.48 786.976 409.216 786.947 409.216 786.947C416.613 786.947 423.19 792.236 425.564 800.115C430.745 817.283 440.281 848.939 449.956 881.185C449.441 881.185 430.586 886.551 430.586 886.551Z" fill="#A8C5EF"/>
<path d="M751.292 1000H166.708C166.317 1000 166 1000.41 166 1000.91V1001.09C166 1001.59 166.317 1002 166.708 1002H751.292C751.683 1002 752 1001.59 752 1001.09V1000.91C752 1000.41 751.683 1000 751.292 1000Z" fill="#4E92F9"/>
<defs>
<linearGradient id="paint0_linear" x1="1177.5" y1="1241" x2="792.5" y2="18.0001" gradientUnits="userSpaceOnUse">
<stop stop-color="#EFAB18"/>
<stop offset="1" stop-color="#FFF0D0"/>
</linearGradient>
<linearGradient id="paint1_linear" x1="424.5" y1="1134" x2="1076.67" y2="235.598" gradientUnits="userSpaceOnUse">
<stop stop-color="#CD8BE6"/>
<stop offset="1" stop-color="#4B95FF"/>
</linearGradient>
</defs>
</svg>
