<svg width="1440" height="542" viewBox="0 0 1440 542" fill="none" xmlns="http://www.w3.org/2000/svg">
<path d="M19.9288 72.8486H16.2809V472.66H19.9288V72.8486Z" fill="url(#paint0_linear)"/>
<path d="M13.9827 73.0308C13.9827 70.7691 15.8431 68.9087 18.1048 68.9087C20.3665 68.9087 22.227 70.7691 22.227 73.0308C22.227 75.2925 20.3665 77.153 18.1048 77.153C15.8431 77.153 13.9827 75.329 13.9827 73.0308Z" fill="url(#paint1_linear)"/>
<path d="M63.5578 112.502H59.9099V432.971H63.5578V112.502Z" fill="url(#paint2_linear)"/>
<path d="M57.6481 112.721C57.6481 110.459 59.5086 108.598 61.7703 108.598C64.032 108.598 65.8924 110.459 65.8924 112.721C65.8924 114.982 64.032 116.843 61.7703 116.843C59.4721 116.806 57.6481 114.982 57.6481 112.721Z" fill="url(#paint3_linear)"/>
<path d="M45.5006 113.888H41.8527V431.584H45.5006V113.888Z" fill="url(#paint4_linear)"/>
<path d="M43.6767 118.228C45.9533 118.228 47.7988 116.383 47.7988 114.106C47.7988 111.83 45.9533 109.984 43.6767 109.984C41.4001 109.984 39.5546 111.83 39.5546 114.106C39.5546 116.383 41.4001 118.228 43.6767 118.228Z" fill="url(#paint5_linear)"/>
<path d="M141.368 75.2935H137.72V470.18H141.368V75.2935Z" fill="url(#paint6_linear)"/>
<path d="M135.422 75.512C135.422 73.2503 137.282 71.3899 139.544 71.3899C141.805 71.3899 143.666 73.2503 143.666 75.512C143.666 77.7737 141.805 79.6342 139.544 79.6342C137.246 79.5977 135.422 77.7737 135.422 75.512Z" fill="url(#paint7_linear)"/>
<path d="M153.479 99.5518H149.831V445.885H153.479V99.5518Z" fill="url(#paint8_linear)"/>
<path d="M147.569 99.7703C147.569 97.5086 149.43 95.6482 151.691 95.6482C153.953 95.6482 155.813 97.5086 155.813 99.7703C155.813 102.032 153.953 103.892 151.691 103.892C149.393 103.892 147.569 102.032 147.569 99.7703Z" fill="url(#paint9_linear)"/>
<path d="M101.532 65.5894H97.8846V479.883H101.532V65.5894Z" fill="url(#paint10_linear)"/>
<path d="M95.5864 65.8079C95.5864 63.5462 97.4468 61.6858 99.7085 61.6858C101.97 61.6858 103.831 63.5462 103.831 65.8079C103.831 68.0696 101.97 69.9301 99.7085 69.9301C97.4468 69.9301 95.5864 68.0696 95.5864 65.8079Z" fill="url(#paint11_linear)"/>
<path d="M213.268 3.93994H209.62V541.569H213.268V3.93994Z" fill="url(#paint12_linear)"/>
<path d="M207.322 4.12214C207.322 1.86044 209.182 0 211.444 0C213.706 0 215.566 1.86044 215.566 4.12214C215.566 6.38385 213.706 8.24428 211.444 8.24428C209.182 8.24428 207.322 6.38385 207.322 4.12214Z" fill="url(#paint13_linear)"/>
<path d="M225.999 34.1084H222.351V511.365H225.999V34.1084Z" fill="url(#paint14_linear)"/>
<path d="M220.053 34.327C220.053 32.0653 221.914 30.2048 224.175 30.2048C226.437 30.2048 228.297 32.0653 228.297 34.327C228.297 36.5887 226.437 38.4491 224.175 38.4491C221.877 38.4126 220.053 36.5887 220.053 34.327Z" fill="url(#paint15_linear)"/>
<path d="M257.59 18.5317H253.942V526.978H257.59V18.5317Z" fill="url(#paint16_linear)"/>
<path d="M251.644 18.7137C251.644 16.452 253.505 14.5916 255.766 14.5916C258.028 14.5916 259.888 16.452 259.888 18.7137C259.888 20.9754 258.028 22.8358 255.766 22.8358C253.468 22.8358 251.644 21.0119 251.644 18.7137Z" fill="url(#paint17_linear)"/>
<path d="M248.215 32.1018H244.567V513.407H248.215V32.1018Z" fill="url(#paint18_linear)"/>
<path d="M242.269 32.284C242.269 30.0223 244.129 28.1619 246.391 28.1619C248.653 28.1619 250.513 30.0223 250.513 32.284C250.513 34.5457 248.653 36.4061 246.391 36.4061C244.129 36.4061 242.269 34.5822 242.269 32.284Z" fill="url(#paint19_linear)"/>
<path d="M230.304 77.3721H226.656V468.136H230.304V77.3721Z" fill="url(#paint20_linear)"/>
<path d="M224.358 77.5543C224.358 75.2926 226.218 73.4321 228.48 73.4321C230.742 73.4321 232.602 75.2926 232.602 77.5543C232.602 79.816 230.742 81.6764 228.48 81.6764C226.182 81.6764 224.358 79.8525 224.358 77.5543Z" fill="url(#paint21_linear)"/>
<path d="M261.968 39.1421H258.32V506.33H261.968V39.1421Z" fill="url(#paint22_linear)"/>
<path d="M260.144 43.4828C262.42 43.4828 264.266 41.6373 264.266 39.3607C264.266 37.0841 262.42 35.2385 260.144 35.2385C257.867 35.2385 256.022 37.0841 256.022 39.3607C256.022 41.6373 257.867 43.4828 260.144 43.4828Z" fill="url(#paint23_linear)"/>
<path d="M270.212 104.731H266.564V440.741H270.212V104.731Z" fill="url(#paint24_linear)"/>
<path d="M264.266 104.95C264.266 102.688 266.126 100.828 268.388 100.828C270.65 100.828 272.51 102.688 272.51 104.95C272.51 107.212 270.65 109.072 268.388 109.072C266.09 109.072 264.266 107.212 264.266 104.95Z" fill="url(#paint25_linear)"/>
<path d="M347.584 63.1091H343.936V482.364H347.584V63.1091Z" fill="url(#paint26_linear)"/>
<path d="M341.638 63.3277C341.638 61.066 343.499 59.2056 345.76 59.2056C348.022 59.2056 349.882 61.066 349.882 63.3277C349.882 65.5894 348.022 67.4499 345.76 67.4499C343.499 67.4499 341.638 65.5894 341.638 63.3277Z" fill="url(#paint27_linear)"/>
<path d="M370.858 111.919H367.21V433.555H370.858V111.919Z" fill="url(#paint28_linear)"/>
<path d="M364.912 112.137C364.912 109.876 366.772 108.015 369.034 108.015C371.296 108.015 373.156 109.876 373.156 112.137C373.156 114.399 371.296 116.259 369.034 116.259C366.772 116.223 364.912 114.399 364.912 112.137Z" fill="url(#paint29_linear)"/>
<path d="M401.354 105.279H397.706V440.23H401.354V105.279Z" fill="url(#paint30_linear)"/>
<path d="M399.53 109.583C401.807 109.583 403.653 107.738 403.653 105.461C403.653 103.185 401.807 101.339 399.53 101.339C397.254 101.339 395.408 103.185 395.408 105.461C395.408 107.738 397.254 109.583 399.53 109.583Z" fill="url(#paint31_linear)"/>
<path d="M450.273 50.9612H446.625V494.511H450.273V50.9612Z" fill="url(#paint32_linear)"/>
<path d="M444.327 51.1797C444.327 48.918 446.151 47.0576 448.449 47.0576C450.711 47.0576 452.571 48.918 452.571 51.1797C452.571 53.4415 450.711 55.3019 448.449 55.3019C446.187 55.2654 444.327 53.4415 444.327 51.1797Z" fill="url(#paint33_linear)"/>
<path d="M496.383 5.3623H492.735V540.11H496.383V5.3623Z" fill="url(#paint34_linear)"/>
<path d="M494.559 9.70302C496.835 9.70302 498.681 7.85748 498.681 5.58088C498.681 3.30429 496.835 1.45874 494.559 1.45874C492.282 1.45874 490.436 3.30429 490.436 5.58088C490.436 7.85748 492.282 9.70302 494.559 9.70302Z" fill="url(#paint35_linear)"/>
<path d="M507.545 69.1643H503.897V476.308H507.545V69.1643Z" fill="url(#paint36_linear)"/>
<path d="M501.599 69.3829C501.599 67.1212 503.459 65.2607 505.721 65.2607C507.983 65.2607 509.843 67.1212 509.843 69.3829C509.843 71.6446 507.983 73.505 505.721 73.505C503.459 73.4686 501.599 71.6446 501.599 69.3829Z" fill="url(#paint37_linear)"/>
<path d="M517.686 36.7346H514.038V508.774H517.686V36.7346Z" fill="url(#paint38_linear)"/>
<path d="M511.777 36.9168C511.777 34.6551 513.637 32.7947 515.899 32.7947C518.161 32.7947 520.021 34.6186 520.021 36.9168C520.021 39.1785 518.161 41.039 515.899 41.039C513.601 41.039 511.777 39.215 511.777 36.9168Z" fill="url(#paint39_linear)"/>
<path d="M524.471 96.4514H520.824V449.059H524.471V96.4514Z" fill="url(#paint40_linear)"/>
<path d="M518.525 96.6336C518.525 94.3719 520.386 92.5115 522.648 92.5115C524.909 92.5115 526.77 94.3719 526.77 96.6336C526.77 98.8953 524.909 100.756 522.648 100.756C520.386 100.756 518.525 98.9318 518.525 96.6336Z" fill="url(#paint41_linear)"/>
<path d="M583.093 11.6741H579.445V533.836H583.093V11.6741Z" fill="url(#paint42_linear)"/>
<path d="M581.269 15.9784C583.546 15.9784 585.392 14.1329 585.392 11.8563C585.392 9.57967 583.546 7.73413 581.269 7.73413C578.993 7.73413 577.147 9.57967 577.147 11.8563C577.147 14.1329 578.993 15.9784 581.269 15.9784Z" fill="url(#paint43_linear)"/>
<path d="M594.913 83.8289H591.265V461.68H594.913V83.8289Z" fill="url(#paint44_linear)"/>
<path d="M588.967 84.011C588.967 81.7493 590.827 79.8889 593.089 79.8889C595.35 79.8889 597.211 81.7493 597.211 84.011C597.211 86.2728 595.35 88.1332 593.089 88.1332C590.791 88.1332 588.967 86.2728 588.967 84.011Z" fill="url(#paint45_linear)"/>
<path d="M641.132 109.583H637.484V435.926H641.132V109.583Z" fill="url(#paint46_linear)"/>
<path d="M635.186 109.765C635.186 107.504 637.046 105.643 639.308 105.643C641.569 105.643 643.43 107.504 643.43 109.765C643.43 112.027 641.569 113.888 639.308 113.888C637.046 113.888 635.186 112.064 635.186 109.765Z" fill="url(#paint47_linear)"/>
<path d="M596.153 5.39893H592.505V540.073H596.153V5.39893Z" fill="url(#paint48_linear)"/>
<path d="M594.329 9.73964C596.606 9.73964 598.451 7.8941 598.451 5.61751C598.451 3.34091 596.606 1.49536 594.329 1.49536C592.052 1.49536 590.207 3.34091 590.207 5.61751C590.207 7.8941 592.052 9.73964 594.329 9.73964Z" fill="url(#paint49_linear)"/>
<path d="M655.723 59.2056H652.075V486.303H655.723V59.2056Z" fill="url(#paint50_linear)"/>
<path d="M653.899 63.5099C656.176 63.5099 658.022 61.6644 658.022 59.3878C658.022 57.1112 656.176 55.2656 653.899 55.2656C651.623 55.2656 649.777 57.1112 649.777 59.3878C649.777 61.6644 651.623 63.5099 653.899 63.5099Z" fill="url(#paint51_linear)"/>
<path d="M710.916 52.7488H707.268V492.76H710.916V52.7488Z" fill="url(#paint52_linear)"/>
<path d="M704.97 52.9307C704.97 50.669 706.831 48.8086 709.092 48.8086C711.354 48.8086 713.214 50.669 713.214 52.9307C713.214 55.1924 711.354 57.0529 709.092 57.0529C706.831 57.0529 704.97 55.2289 704.97 52.9307Z" fill="url(#paint53_linear)"/>
<path d="M742.033 31.1533H738.385V514.283H742.033V31.1533Z" fill="url(#paint54_linear)"/>
<path d="M736.123 31.3719C736.123 29.1102 737.984 27.2498 740.245 27.2498C742.507 27.2498 744.368 29.1102 744.368 31.3719C744.368 33.6336 742.507 35.494 740.245 35.494C737.947 35.494 736.123 33.6336 736.123 31.3719Z" fill="url(#paint55_linear)"/>
<path d="M671.409 19.2976H667.761V526.138H671.409V19.2976Z" fill="url(#paint56_linear)"/>
<path d="M665.463 19.5162C665.463 17.2545 667.324 15.394 669.585 15.394C671.847 15.394 673.707 17.2545 673.707 19.5162C673.707 21.7779 671.847 23.6383 669.585 23.6383C667.324 23.6383 665.463 21.7779 665.463 19.5162Z" fill="url(#paint57_linear)"/>
<path d="M743.456 111.152H739.808V434.284H743.456V111.152Z" fill="url(#paint58_linear)"/>
<path d="M737.546 111.37C737.546 109.109 739.406 107.248 741.668 107.248C743.93 107.248 745.79 109.109 745.79 111.37C745.79 113.632 743.93 115.493 741.668 115.493C739.37 115.493 737.546 113.632 737.546 111.37Z" fill="url(#paint59_linear)"/>
<path d="M732.585 81.7139H728.937V463.76H732.585V81.7139Z" fill="url(#paint60_linear)"/>
<path d="M726.675 81.9324C726.675 79.6707 728.536 77.8103 730.797 77.8103C733.059 77.8103 734.919 79.6707 734.919 81.9324C734.919 84.1941 733.059 86.0546 730.797 86.0546C728.499 86.0181 726.675 84.1941 726.675 81.9324Z" fill="url(#paint61_linear)"/>
<path d="M806.2 17.7659H802.552V527.671H806.2V17.7659Z" fill="url(#paint62_linear)"/>
<path d="M800.29 17.9844C800.29 15.7227 802.15 13.8623 804.412 13.8623C806.674 13.8623 808.534 15.7227 808.534 17.9844C808.534 20.2461 806.674 22.1066 804.412 22.1066C802.114 22.1066 800.29 20.2461 800.29 17.9844Z" fill="url(#paint63_linear)"/>
<path d="M770.012 115.384H766.365V430.126H770.012V115.384Z" fill="url(#paint64_linear)"/>
<path d="M764.066 115.566C764.066 113.304 765.927 111.444 768.188 111.444C770.45 111.444 772.31 113.304 772.31 115.566C772.31 117.828 770.45 119.688 768.188 119.688C765.927 119.688 764.066 117.864 764.066 115.566Z" fill="url(#paint65_linear)"/>
<path d="M834.617 79.415H830.969V466.057H834.617V79.415Z" fill="url(#paint66_linear)"/>
<path d="M828.671 79.6339C828.671 77.3722 830.531 75.5117 832.793 75.5117C835.055 75.5117 836.915 77.3722 836.915 79.6339C836.915 81.8956 835.055 83.756 832.793 83.756C830.531 83.756 828.671 81.8956 828.671 79.6339Z" fill="url(#paint67_linear)"/>
<path d="M841.694 86.3101H838.046V459.2H841.694V86.3101Z" fill="url(#paint68_linear)"/>
<path d="M835.784 86.4922C835.784 84.2305 837.645 82.3701 839.906 82.3701C842.168 82.3701 844.029 84.2305 844.029 86.4922C844.029 88.754 842.168 90.6144 839.906 90.6144C837.608 90.6144 835.784 88.7904 835.784 86.4922Z" fill="url(#paint69_linear)"/>
<path d="M917.753 35.9324H914.105V509.541H917.753V35.9324Z" fill="url(#paint70_linear)"/>
<path d="M915.929 40.2731C918.206 40.2731 920.051 38.4275 920.051 36.151C920.051 33.8744 918.206 32.0288 915.929 32.0288C913.652 32.0288 911.807 33.8744 911.807 36.151C911.807 38.4275 913.652 40.2731 915.929 40.2731Z" fill="url(#paint71_linear)"/>
<path d="M872.227 7.3689H868.579V538.14H872.227V7.3689Z" fill="url(#paint72_linear)"/>
<path d="M866.281 7.55109C866.281 5.28939 868.141 3.42896 870.403 3.42896C872.665 3.42896 874.525 5.28939 874.525 7.55109C874.525 9.8128 872.665 11.6732 870.403 11.6732C868.141 11.6732 866.281 9.84928 866.281 7.55109Z" fill="url(#paint73_linear)"/>
<path d="M914.105 14.7742H910.457V530.698H914.105V14.7742Z" fill="url(#paint74_linear)"/>
<path d="M908.159 14.9928C908.159 12.731 910.019 10.8706 912.281 10.8706C914.543 10.8706 916.403 12.731 916.403 14.9928C916.403 17.2545 914.543 19.1149 912.281 19.1149C910.019 19.1149 908.159 17.2545 908.159 14.9928Z" fill="url(#paint75_linear)"/>
<path d="M1018.4 46.4014H1014.75V499.071H1018.4V46.4014Z" fill="url(#paint76_linear)"/>
<path d="M1012.45 46.6199C1012.45 44.3582 1014.31 42.4978 1016.57 42.4978C1018.84 42.4978 1020.7 44.3582 1020.7 46.6199C1020.7 48.8816 1018.84 50.7421 1016.57 50.7421C1014.31 50.7056 1012.45 48.8816 1012.45 46.6199Z" fill="url(#paint77_linear)"/>
<path d="M1013.95 81.6406H1010.3V463.832H1013.95V81.6406Z" fill="url(#paint78_linear)"/>
<path d="M1008.04 81.8594C1008.04 79.5977 1009.9 77.7373 1012.16 77.7373C1014.42 77.7373 1016.28 79.5977 1016.28 81.8594C1016.28 84.1211 1014.42 85.9816 1012.16 85.9816C1009.9 85.9816 1008.04 84.1211 1008.04 81.8594Z" fill="url(#paint79_linear)"/>
<path d="M1071.15 89.1912H1067.5V456.281H1071.15V89.1912Z" fill="url(#paint80_linear)"/>
<path d="M1065.2 89.41C1065.2 87.1483 1067.03 85.2878 1069.32 85.2878C1071.59 85.2878 1073.45 87.1483 1073.45 89.41C1073.45 91.6717 1071.59 93.5321 1069.32 93.5321C1067.06 93.5321 1065.2 91.6717 1065.2 89.41Z" fill="url(#paint81_linear)"/>
<path d="M1017.45 45.5989H1013.8V499.873H1017.45V45.5989Z" fill="url(#paint82_linear)"/>
<path d="M1011.5 45.8175C1011.5 43.5558 1013.36 41.6953 1015.63 41.6953C1017.89 41.6953 1019.75 43.5558 1019.75 45.8175C1019.75 48.0792 1017.89 49.9396 1015.63 49.9396C1013.36 49.9396 1011.5 48.0792 1011.5 45.8175Z" fill="url(#paint83_linear)"/>
<path d="M1038.61 57.054H1034.96V488.383H1038.61V57.054Z" fill="url(#paint84_linear)"/>
<path d="M1032.66 57.2725C1032.66 55.0108 1034.52 53.1504 1036.78 53.1504C1039.05 53.1504 1040.91 54.9744 1040.91 57.2725C1040.91 59.5342 1039.05 61.3947 1036.78 61.3947C1034.49 61.3947 1032.66 59.5342 1032.66 57.2725Z" fill="url(#paint85_linear)"/>
<path d="M1094.71 81.3486H1091.07V464.161H1094.71V81.3486Z" fill="url(#paint86_linear)"/>
<path d="M1088.77 81.5308C1088.77 79.2691 1090.63 77.4087 1092.89 77.4087C1095.15 77.4087 1097.01 79.2691 1097.01 81.5308C1097.01 83.7925 1095.15 85.653 1092.89 85.653C1090.59 85.653 1088.77 83.829 1088.77 81.5308Z" fill="url(#paint87_linear)"/>
<path d="M1074.39 76.5693H1070.75V468.902H1074.39V76.5693Z" fill="url(#paint88_linear)"/>
<path d="M1068.45 76.7881C1068.45 74.5264 1070.31 72.666 1072.57 72.666C1074.83 72.666 1076.69 74.5264 1076.69 76.7881C1076.69 79.0499 1074.83 80.9103 1072.57 80.9103C1070.31 80.8738 1068.45 79.0499 1068.45 76.7881Z" fill="url(#paint89_linear)"/>
<path d="M1098.4 7.77051H1094.75V537.703H1098.4V7.77051Z" fill="url(#paint90_linear)"/>
<path d="M1092.45 7.98908C1092.45 5.72738 1094.31 3.86694 1096.57 3.86694C1098.84 3.86694 1100.7 5.72738 1100.7 7.98908C1100.7 10.2508 1098.84 12.1112 1096.57 12.1112C1094.31 12.0747 1092.45 10.2508 1092.45 7.98908Z" fill="url(#paint91_linear)"/>
<path d="M1157.86 103.893H1154.21V441.616H1157.86V103.893Z" fill="url(#paint92_linear)"/>
<path d="M1151.91 104.075C1151.91 101.813 1153.77 99.9524 1156.03 99.9524C1158.3 99.9524 1160.16 101.813 1160.16 104.075C1160.16 106.336 1158.3 108.197 1156.03 108.197C1153.74 108.197 1151.91 106.373 1151.91 104.075Z" fill="url(#paint93_linear)"/>
<path d="M1229.72 112.976H1226.07V432.496H1229.72V112.976Z" fill="url(#paint94_linear)"/>
<path d="M1223.81 113.194C1223.81 110.933 1225.67 109.072 1227.93 109.072C1230.2 109.072 1232.06 110.933 1232.06 113.194C1232.06 115.456 1230.2 117.317 1227.93 117.317C1225.64 117.28 1223.81 115.456 1223.81 113.194Z" fill="url(#paint95_linear)"/>
<path d="M1236.84 18.8237H1233.19V526.65H1236.84V18.8237Z" fill="url(#paint96_linear)"/>
<path d="M1230.89 19.0426C1230.89 16.7808 1232.75 14.9204 1235.01 14.9204C1237.27 14.9204 1239.13 16.7808 1239.13 19.0426C1239.13 21.3043 1237.27 23.1647 1235.01 23.1647C1232.75 23.1647 1230.89 21.3043 1230.89 19.0426Z" fill="url(#paint97_linear)"/>
<path d="M1198.82 99.4055H1195.18V446.03H1198.82V99.4055Z" fill="url(#paint98_linear)"/>
<path d="M1192.88 99.6243C1192.88 97.3626 1194.74 95.5022 1197 95.5022C1199.26 95.5022 1201.12 97.3626 1201.12 99.6243C1201.12 101.886 1199.26 103.746 1197 103.746C1194.7 103.746 1192.88 101.886 1192.88 99.6243Z" fill="url(#paint99_linear)"/>
<path d="M1267.37 34.8743H1263.72V510.598H1267.37V34.8743Z" fill="url(#paint100_linear)"/>
<path d="M1261.46 35.0928C1261.46 32.8311 1263.32 30.9707 1265.58 30.9707C1267.84 30.9707 1269.7 32.7947 1269.7 35.0928C1269.7 37.3545 1267.84 39.215 1265.58 39.215C1263.32 39.215 1261.46 37.3545 1261.46 35.0928Z" fill="url(#paint101_linear)"/>
<path d="M1294.76 14.7742H1291.12V530.698H1294.76V14.7742Z" fill="url(#paint102_linear)"/>
<path d="M1288.82 14.9928C1288.82 12.731 1290.68 10.8706 1292.94 10.8706C1295.2 10.8706 1297.06 12.731 1297.06 14.9928C1297.06 17.2545 1295.2 19.1149 1292.94 19.1149C1290.68 19.1149 1288.82 17.2545 1288.82 14.9928Z" fill="url(#paint103_linear)"/>
<path d="M1284.33 74.345H1280.68V471.092H1284.33V74.345Z" fill="url(#paint104_linear)"/>
<path d="M1278.42 74.5635C1278.42 72.3018 1280.28 70.4414 1282.54 70.4414C1284.81 70.4414 1286.67 72.3018 1286.67 74.5635C1286.67 76.8252 1284.81 78.6857 1282.54 78.6857C1280.25 78.6857 1278.42 76.8252 1278.42 74.5635Z" fill="url(#paint105_linear)"/>
<path d="M1292.47 86.4553H1288.82V459.017H1292.47V86.4553Z" fill="url(#paint106_linear)"/>
<path d="M1286.52 86.6739C1286.52 84.4122 1288.38 82.5518 1290.64 82.5518C1292.9 82.5518 1294.76 84.4122 1294.76 86.6739C1294.76 88.9356 1292.94 90.796 1290.64 90.796C1288.34 90.796 1286.52 88.9356 1286.52 86.6739Z" fill="url(#paint107_linear)"/>
<path d="M1369.44 20.0635H1365.79V525.445H1369.44V20.0635Z" fill="url(#paint108_linear)"/>
<path d="M1363.53 20.2457C1363.53 17.984 1365.39 16.1235 1367.65 16.1235C1369.91 16.1235 1371.77 17.9475 1371.77 20.2457C1371.77 22.5439 1369.91 24.3678 1367.65 24.3678C1365.35 24.3678 1363.53 22.5439 1363.53 20.2457Z" fill="url(#paint109_linear)"/>
<path d="M1378.08 46.876H1374.43V498.597H1378.08V46.876Z" fill="url(#paint110_linear)"/>
<path d="M1372.14 47.0946C1372.14 44.8329 1374 42.9724 1376.26 42.9724C1378.52 42.9724 1380.38 44.8329 1380.38 47.0946C1380.38 49.3563 1378.52 51.2167 1376.26 51.2167C1374 51.2167 1372.14 49.3563 1372.14 47.0946Z" fill="url(#paint111_linear)"/>
<path d="M1398.15 84.3767H1394.5V461.133H1398.15V84.3767Z" fill="url(#paint112_linear)"/>
<path d="M1392.2 84.5589C1392.2 82.2972 1394.02 80.4368 1396.32 80.4368C1398.58 80.4368 1400.44 82.2972 1400.44 84.5589C1400.44 86.8206 1398.58 88.6811 1396.32 88.6811C1394.02 88.6811 1392.2 86.8571 1392.2 84.5589Z" fill="url(#paint113_linear)"/>
<defs>
<linearGradient id="paint0_linear" x1="18.1125" y1="472.691" x2="18.1125" y2="69.0567" gradientUnits="userSpaceOnUse">
<stop stop-color="#0F1145" stop-opacity="0"/>
<stop offset="1" stop-color="white" stop-opacity="0.07"/>
</linearGradient>
<linearGradient id="paint1_linear" x1="18.1221" y1="77.1536" x2="18.1221" y2="68.8305" gradientUnits="userSpaceOnUse">
<stop stop-color="#0F1145" stop-opacity="0"/>
<stop offset="1" stop-color="white" stop-opacity="0.07"/>
</linearGradient>
<linearGradient id="paint2_linear" x1="61.7415" y1="432.996" x2="61.7415" y2="109.462" gradientUnits="userSpaceOnUse">
<stop stop-color="#0F1145" stop-opacity="0"/>
<stop offset="1" stop-color="white" stop-opacity="0.07"/>
</linearGradient>
<linearGradient id="paint3_linear" x1="61.7876" y1="116.843" x2="61.7876" y2="108.52" gradientUnits="userSpaceOnUse">
<stop stop-color="#0F1145" stop-opacity="0"/>
<stop offset="1" stop-color="white" stop-opacity="0.07"/>
</linearGradient>
<linearGradient id="paint4_linear" x1="43.6843" y1="431.609" x2="43.6843" y2="110.875" gradientUnits="userSpaceOnUse">
<stop stop-color="#0F1145" stop-opacity="0"/>
<stop offset="1" stop-color="white" stop-opacity="0.07"/>
</linearGradient>
<linearGradient id="paint5_linear" x1="43.694" y1="118.229" x2="43.694" y2="109.906" gradientUnits="userSpaceOnUse">
<stop stop-color="#0F1145" stop-opacity="0"/>
<stop offset="1" stop-color="white" stop-opacity="0.07"/>
</linearGradient>
<linearGradient id="paint6_linear" x1="139.551" y1="470.211" x2="139.551" y2="71.5482" gradientUnits="userSpaceOnUse">
<stop stop-color="#0F1145" stop-opacity="0"/>
<stop offset="1" stop-color="white" stop-opacity="0.07"/>
</linearGradient>
<linearGradient id="paint7_linear" x1="139.561" y1="79.6348" x2="139.561" y2="71.3117" gradientUnits="userSpaceOnUse">
<stop stop-color="#0F1145" stop-opacity="0"/>
<stop offset="1" stop-color="white" stop-opacity="0.07"/>
</linearGradient>
<linearGradient id="paint8_linear" x1="151.662" y1="445.912" x2="151.662" y2="96.267" gradientUnits="userSpaceOnUse">
<stop stop-color="#0F1145" stop-opacity="0"/>
<stop offset="1" stop-color="white" stop-opacity="0.07"/>
</linearGradient>
<linearGradient id="paint9_linear" x1="151.709" y1="103.893" x2="151.709" y2="95.57" gradientUnits="userSpaceOnUse">
<stop stop-color="#0F1145" stop-opacity="0"/>
<stop offset="1" stop-color="white" stop-opacity="0.07"/>
</linearGradient>
<linearGradient id="paint10_linear" x1="99.7162" y1="479.915" x2="99.7162" y2="61.66" gradientUnits="userSpaceOnUse">
<stop stop-color="#0F1145" stop-opacity="0"/>
<stop offset="1" stop-color="white" stop-opacity="0.07"/>
</linearGradient>
<linearGradient id="paint11_linear" x1="99.7259" y1="69.9307" x2="99.7259" y2="61.6076" gradientUnits="userSpaceOnUse">
<stop stop-color="#0F1145" stop-opacity="0"/>
<stop offset="1" stop-color="white" stop-opacity="0.07"/>
</linearGradient>
<linearGradient id="paint12_linear" x1="211.452" y1="541.612" x2="211.452" y2="-1.15917" gradientUnits="userSpaceOnUse">
<stop stop-color="#0F1145" stop-opacity="0"/>
<stop offset="1" stop-color="white" stop-opacity="0.07"/>
</linearGradient>
<linearGradient id="paint13_linear" x1="211.461" y1="8.24493" x2="211.461" y2="-0.0781923" gradientUnits="userSpaceOnUse">
<stop stop-color="#0F1145" stop-opacity="0"/>
<stop offset="1" stop-color="white" stop-opacity="0.07"/>
</linearGradient>
<linearGradient id="paint14_linear" x1="224.183" y1="511.402" x2="224.183" y2="29.5819" gradientUnits="userSpaceOnUse">
<stop stop-color="#0F1145" stop-opacity="0"/>
<stop offset="1" stop-color="white" stop-opacity="0.07"/>
</linearGradient>
<linearGradient id="paint15_linear" x1="224.193" y1="38.4498" x2="224.193" y2="30.1266" gradientUnits="userSpaceOnUse">
<stop stop-color="#0F1145" stop-opacity="0"/>
<stop offset="1" stop-color="white" stop-opacity="0.07"/>
</linearGradient>
<linearGradient id="paint16_linear" x1="255.774" y1="527.018" x2="255.774" y2="13.7094" gradientUnits="userSpaceOnUse">
<stop stop-color="#0F1145" stop-opacity="0"/>
<stop offset="1" stop-color="white" stop-opacity="0.07"/>
</linearGradient>
<linearGradient id="paint17_linear" x1="255.784" y1="22.8365" x2="255.784" y2="14.5134" gradientUnits="userSpaceOnUse">
<stop stop-color="#0F1145" stop-opacity="0"/>
<stop offset="1" stop-color="white" stop-opacity="0.07"/>
</linearGradient>
<linearGradient id="paint18_linear" x1="246.399" y1="513.445" x2="246.399" y2="27.5369" gradientUnits="userSpaceOnUse">
<stop stop-color="#0F1145" stop-opacity="0"/>
<stop offset="1" stop-color="white" stop-opacity="0.07"/>
</linearGradient>
<linearGradient id="paint19_linear" x1="246.408" y1="36.4068" x2="246.408" y2="28.0837" gradientUnits="userSpaceOnUse">
<stop stop-color="#0F1145" stop-opacity="0"/>
<stop offset="1" stop-color="white" stop-opacity="0.07"/>
</linearGradient>
<linearGradient id="paint20_linear" x1="228.488" y1="468.167" x2="228.488" y2="73.6659" gradientUnits="userSpaceOnUse">
<stop stop-color="#0F1145" stop-opacity="0"/>
<stop offset="1" stop-color="white" stop-opacity="0.07"/>
</linearGradient>
<linearGradient id="paint21_linear" x1="228.497" y1="81.6771" x2="228.497" y2="73.3539" gradientUnits="userSpaceOnUse">
<stop stop-color="#0F1145" stop-opacity="0"/>
<stop offset="1" stop-color="white" stop-opacity="0.07"/>
</linearGradient>
<linearGradient id="paint22_linear" x1="260.151" y1="506.367" x2="260.151" y2="34.7111" gradientUnits="userSpaceOnUse">
<stop stop-color="#0F1145" stop-opacity="0"/>
<stop offset="1" stop-color="white" stop-opacity="0.07"/>
</linearGradient>
<linearGradient id="paint23_linear" x1="260.161" y1="43.4835" x2="260.161" y2="35.1603" gradientUnits="userSpaceOnUse">
<stop stop-color="#0F1145" stop-opacity="0"/>
<stop offset="1" stop-color="white" stop-opacity="0.07"/>
</linearGradient>
<linearGradient id="paint24_linear" x1="268.396" y1="440.767" x2="268.396" y2="101.545" gradientUnits="userSpaceOnUse">
<stop stop-color="#0F1145" stop-opacity="0"/>
<stop offset="1" stop-color="white" stop-opacity="0.07"/>
</linearGradient>
<linearGradient id="paint25_linear" x1="268.405" y1="109.073" x2="268.405" y2="100.75" gradientUnits="userSpaceOnUse">
<stop stop-color="#0F1145" stop-opacity="0"/>
<stop offset="1" stop-color="white" stop-opacity="0.07"/>
</linearGradient>
<linearGradient id="paint26_linear" x1="345.768" y1="482.397" x2="345.768" y2="59.1327" gradientUnits="userSpaceOnUse">
<stop stop-color="#0F1145" stop-opacity="0"/>
<stop offset="1" stop-color="white" stop-opacity="0.07"/>
</linearGradient>
<linearGradient id="paint27_linear" x1="345.778" y1="67.4505" x2="345.778" y2="59.1274" gradientUnits="userSpaceOnUse">
<stop stop-color="#0F1145" stop-opacity="0"/>
<stop offset="1" stop-color="white" stop-opacity="0.07"/>
</linearGradient>
<linearGradient id="paint28_linear" x1="369.042" y1="433.581" x2="369.042" y2="108.868" gradientUnits="userSpaceOnUse">
<stop stop-color="#0F1145" stop-opacity="0"/>
<stop offset="1" stop-color="white" stop-opacity="0.07"/>
</linearGradient>
<linearGradient id="paint29_linear" x1="369.051" y1="116.26" x2="369.051" y2="107.937" gradientUnits="userSpaceOnUse">
<stop stop-color="#0F1145" stop-opacity="0"/>
<stop offset="1" stop-color="white" stop-opacity="0.07"/>
</linearGradient>
<linearGradient id="paint30_linear" x1="399.538" y1="440.257" x2="399.538" y2="102.102" gradientUnits="userSpaceOnUse">
<stop stop-color="#0F1145" stop-opacity="0"/>
<stop offset="1" stop-color="white" stop-opacity="0.07"/>
</linearGradient>
<linearGradient id="paint31_linear" x1="399.548" y1="109.584" x2="399.548" y2="101.261" gradientUnits="userSpaceOnUse">
<stop stop-color="#0F1145" stop-opacity="0"/>
<stop offset="1" stop-color="white" stop-opacity="0.07"/>
</linearGradient>
<linearGradient id="paint32_linear" x1="448.457" y1="494.546" x2="448.457" y2="46.7544" gradientUnits="userSpaceOnUse">
<stop stop-color="#0F1145" stop-opacity="0"/>
<stop offset="1" stop-color="white" stop-opacity="0.07"/>
</linearGradient>
<linearGradient id="paint33_linear" x1="448.466" y1="55.3025" x2="448.466" y2="46.9794" gradientUnits="userSpaceOnUse">
<stop stop-color="#0F1145" stop-opacity="0"/>
<stop offset="1" stop-color="white" stop-opacity="0.07"/>
</linearGradient>
<linearGradient id="paint34_linear" x1="494.566" y1="540.152" x2="494.566" y2="0.29053" gradientUnits="userSpaceOnUse">
<stop stop-color="#0F1145" stop-opacity="0"/>
<stop offset="1" stop-color="white" stop-opacity="0.07"/>
</linearGradient>
<linearGradient id="paint35_linear" x1="494.576" y1="9.70367" x2="494.576" y2="1.38055" gradientUnits="userSpaceOnUse">
<stop stop-color="#0F1145" stop-opacity="0"/>
<stop offset="1" stop-color="white" stop-opacity="0.07"/>
</linearGradient>
<linearGradient id="paint36_linear" x1="505.729" y1="476.34" x2="505.729" y2="65.3028" gradientUnits="userSpaceOnUse">
<stop stop-color="#0F1145" stop-opacity="0"/>
<stop offset="1" stop-color="white" stop-opacity="0.07"/>
</linearGradient>
<linearGradient id="paint37_linear" x1="505.738" y1="73.5057" x2="505.738" y2="65.1825" gradientUnits="userSpaceOnUse">
<stop stop-color="#0F1145" stop-opacity="0"/>
<stop offset="1" stop-color="white" stop-opacity="0.07"/>
</linearGradient>
<linearGradient id="paint38_linear" x1="515.87" y1="508.812" x2="515.87" y2="32.2576" gradientUnits="userSpaceOnUse">
<stop stop-color="#0F1145" stop-opacity="0"/>
<stop offset="1" stop-color="white" stop-opacity="0.07"/>
</linearGradient>
<linearGradient id="paint39_linear" x1="515.916" y1="41.0396" x2="515.916" y2="32.7165" gradientUnits="userSpaceOnUse">
<stop stop-color="#0F1145" stop-opacity="0"/>
<stop offset="1" stop-color="white" stop-opacity="0.07"/>
</linearGradient>
<linearGradient id="paint40_linear" x1="522.655" y1="449.086" x2="522.655" y2="93.1071" gradientUnits="userSpaceOnUse">
<stop stop-color="#0F1145" stop-opacity="0"/>
<stop offset="1" stop-color="white" stop-opacity="0.07"/>
</linearGradient>
<linearGradient id="paint41_linear" x1="522.665" y1="100.756" x2="522.665" y2="92.4333" gradientUnits="userSpaceOnUse">
<stop stop-color="#0F1145" stop-opacity="0"/>
<stop offset="1" stop-color="white" stop-opacity="0.07"/>
</linearGradient>
<linearGradient id="paint42_linear" x1="581.277" y1="533.878" x2="581.277" y2="6.72166" gradientUnits="userSpaceOnUse">
<stop stop-color="#0F1145" stop-opacity="0"/>
<stop offset="1" stop-color="white" stop-opacity="0.07"/>
</linearGradient>
<linearGradient id="paint43_linear" x1="581.287" y1="15.9791" x2="581.287" y2="7.65594" gradientUnits="userSpaceOnUse">
<stop stop-color="#0F1145" stop-opacity="0"/>
<stop offset="1" stop-color="white" stop-opacity="0.07"/>
</linearGradient>
<linearGradient id="paint44_linear" x1="593.096" y1="461.709" x2="593.096" y2="80.2452" gradientUnits="userSpaceOnUse">
<stop stop-color="#0F1145" stop-opacity="0"/>
<stop offset="1" stop-color="white" stop-opacity="0.07"/>
</linearGradient>
<linearGradient id="paint45_linear" x1="593.106" y1="88.1338" x2="593.106" y2="79.8107" gradientUnits="userSpaceOnUse">
<stop stop-color="#0F1145" stop-opacity="0"/>
<stop offset="1" stop-color="white" stop-opacity="0.07"/>
</linearGradient>
<linearGradient id="paint46_linear" x1="639.315" y1="435.951" x2="639.315" y2="106.488" gradientUnits="userSpaceOnUse">
<stop stop-color="#0F1145" stop-opacity="0"/>
<stop offset="1" stop-color="white" stop-opacity="0.07"/>
</linearGradient>
<linearGradient id="paint47_linear" x1="639.325" y1="113.888" x2="639.325" y2="105.565" gradientUnits="userSpaceOnUse">
<stop stop-color="#0F1145" stop-opacity="0"/>
<stop offset="1" stop-color="white" stop-opacity="0.07"/>
</linearGradient>
<linearGradient id="paint48_linear" x1="594.337" y1="540.116" x2="594.337" y2="0.327842" gradientUnits="userSpaceOnUse">
<stop stop-color="#0F1145" stop-opacity="0"/>
<stop offset="1" stop-color="white" stop-opacity="0.07"/>
</linearGradient>
<linearGradient id="paint49_linear" x1="594.346" y1="9.7403" x2="594.346" y2="1.41717" gradientUnits="userSpaceOnUse">
<stop stop-color="#0F1145" stop-opacity="0"/>
<stop offset="1" stop-color="white" stop-opacity="0.07"/>
</linearGradient>
<linearGradient id="paint50_linear" x1="653.907" y1="486.337" x2="653.907" y2="55.1548" gradientUnits="userSpaceOnUse">
<stop stop-color="#0F1145" stop-opacity="0"/>
<stop offset="1" stop-color="white" stop-opacity="0.07"/>
</linearGradient>
<linearGradient id="paint51_linear" x1="653.917" y1="63.5106" x2="653.917" y2="55.1874" gradientUnits="userSpaceOnUse">
<stop stop-color="#0F1145" stop-opacity="0"/>
<stop offset="1" stop-color="white" stop-opacity="0.07"/>
</linearGradient>
<linearGradient id="paint52_linear" x1="709.1" y1="492.795" x2="709.1" y2="48.5755" gradientUnits="userSpaceOnUse">
<stop stop-color="#0F1145" stop-opacity="0"/>
<stop offset="1" stop-color="white" stop-opacity="0.07"/>
</linearGradient>
<linearGradient id="paint53_linear" x1="709.11" y1="57.0535" x2="709.11" y2="48.7304" gradientUnits="userSpaceOnUse">
<stop stop-color="#0F1145" stop-opacity="0"/>
<stop offset="1" stop-color="white" stop-opacity="0.07"/>
</linearGradient>
<linearGradient id="paint54_linear" x1="740.217" y1="514.321" x2="740.217" y2="26.5711" gradientUnits="userSpaceOnUse">
<stop stop-color="#0F1145" stop-opacity="0"/>
<stop offset="1" stop-color="white" stop-opacity="0.07"/>
</linearGradient>
<linearGradient id="paint55_linear" x1="740.263" y1="35.4947" x2="740.263" y2="27.1716" gradientUnits="userSpaceOnUse">
<stop stop-color="#0F1145" stop-opacity="0"/>
<stop offset="1" stop-color="white" stop-opacity="0.07"/>
</linearGradient>
<linearGradient id="paint56_linear" x1="669.593" y1="526.179" x2="669.593" y2="14.4905" gradientUnits="userSpaceOnUse">
<stop stop-color="#0F1145" stop-opacity="0"/>
<stop offset="1" stop-color="white" stop-opacity="0.07"/>
</linearGradient>
<linearGradient id="paint57_linear" x1="669.603" y1="23.639" x2="669.603" y2="15.3159" gradientUnits="userSpaceOnUse">
<stop stop-color="#0F1145" stop-opacity="0"/>
<stop offset="1" stop-color="white" stop-opacity="0.07"/>
</linearGradient>
<linearGradient id="paint58_linear" x1="741.639" y1="434.309" x2="741.639" y2="108.087" gradientUnits="userSpaceOnUse">
<stop stop-color="#0F1145" stop-opacity="0"/>
<stop offset="1" stop-color="white" stop-opacity="0.07"/>
</linearGradient>
<linearGradient id="paint59_linear" x1="741.685" y1="115.493" x2="741.685" y2="107.17" gradientUnits="userSpaceOnUse">
<stop stop-color="#0F1145" stop-opacity="0"/>
<stop offset="1" stop-color="white" stop-opacity="0.07"/>
</linearGradient>
<linearGradient id="paint60_linear" x1="730.769" y1="463.79" x2="730.769" y2="78.0904" gradientUnits="userSpaceOnUse">
<stop stop-color="#0F1145" stop-opacity="0"/>
<stop offset="1" stop-color="white" stop-opacity="0.07"/>
</linearGradient>
<linearGradient id="paint61_linear" x1="730.815" y1="86.0552" x2="730.815" y2="77.7321" gradientUnits="userSpaceOnUse">
<stop stop-color="#0F1145" stop-opacity="0"/>
<stop offset="1" stop-color="white" stop-opacity="0.07"/>
</linearGradient>
<linearGradient id="paint62_linear" x1="804.383" y1="527.711" x2="804.383" y2="12.9297" gradientUnits="userSpaceOnUse">
<stop stop-color="#0F1145" stop-opacity="0"/>
<stop offset="1" stop-color="white" stop-opacity="0.07"/>
</linearGradient>
<linearGradient id="paint63_linear" x1="804.43" y1="22.1072" x2="804.43" y2="13.7841" gradientUnits="userSpaceOnUse">
<stop stop-color="#0F1145" stop-opacity="0"/>
<stop offset="1" stop-color="white" stop-opacity="0.07"/>
</linearGradient>
<linearGradient id="paint64_linear" x1="768.196" y1="430.151" x2="768.196" y2="112.399" gradientUnits="userSpaceOnUse">
<stop stop-color="#0F1145" stop-opacity="0"/>
<stop offset="1" stop-color="white" stop-opacity="0.07"/>
</linearGradient>
<linearGradient id="paint65_linear" x1="768.206" y1="119.689" x2="768.206" y2="111.366" gradientUnits="userSpaceOnUse">
<stop stop-color="#0F1145" stop-opacity="0"/>
<stop offset="1" stop-color="white" stop-opacity="0.07"/>
</linearGradient>
<linearGradient id="paint66_linear" x1="832.801" y1="466.088" x2="832.801" y2="75.748" gradientUnits="userSpaceOnUse">
<stop stop-color="#0F1145" stop-opacity="0"/>
<stop offset="1" stop-color="white" stop-opacity="0.07"/>
</linearGradient>
<linearGradient id="paint67_linear" x1="832.81" y1="83.7566" x2="832.81" y2="75.4335" gradientUnits="userSpaceOnUse">
<stop stop-color="#0F1145" stop-opacity="0"/>
<stop offset="1" stop-color="white" stop-opacity="0.07"/>
</linearGradient>
<linearGradient id="paint68_linear" x1="839.878" y1="459.229" x2="839.878" y2="82.7734" gradientUnits="userSpaceOnUse">
<stop stop-color="#0F1145" stop-opacity="0"/>
<stop offset="1" stop-color="white" stop-opacity="0.07"/>
</linearGradient>
<linearGradient id="paint69_linear" x1="839.924" y1="90.615" x2="839.924" y2="82.2919" gradientUnits="userSpaceOnUse">
<stop stop-color="#0F1145" stop-opacity="0"/>
<stop offset="1" stop-color="white" stop-opacity="0.07"/>
</linearGradient>
<linearGradient id="paint70_linear" x1="915.937" y1="509.578" x2="915.937" y2="31.4405" gradientUnits="userSpaceOnUse">
<stop stop-color="#0F1145" stop-opacity="0"/>
<stop offset="1" stop-color="white" stop-opacity="0.07"/>
</linearGradient>
<linearGradient id="paint71_linear" x1="915.946" y1="40.2737" x2="915.946" y2="31.9506" gradientUnits="userSpaceOnUse">
<stop stop-color="#0F1145" stop-opacity="0"/>
<stop offset="1" stop-color="white" stop-opacity="0.07"/>
</linearGradient>
<linearGradient id="paint72_linear" x1="870.411" y1="538.182" x2="870.411" y2="2.33483" gradientUnits="userSpaceOnUse">
<stop stop-color="#0F1145" stop-opacity="0"/>
<stop offset="1" stop-color="white" stop-opacity="0.07"/>
</linearGradient>
<linearGradient id="paint73_linear" x1="870.42" y1="11.6739" x2="870.42" y2="3.35076" gradientUnits="userSpaceOnUse">
<stop stop-color="#0F1145" stop-opacity="0"/>
<stop offset="1" stop-color="white" stop-opacity="0.07"/>
</linearGradient>
<linearGradient id="paint74_linear" x1="912.289" y1="530.739" x2="912.289" y2="9.88092" gradientUnits="userSpaceOnUse">
<stop stop-color="#0F1145" stop-opacity="0"/>
<stop offset="1" stop-color="white" stop-opacity="0.07"/>
</linearGradient>
<linearGradient id="paint75_linear" x1="912.298" y1="19.1155" x2="912.298" y2="10.7924" gradientUnits="userSpaceOnUse">
<stop stop-color="#0F1145" stop-opacity="0"/>
<stop offset="1" stop-color="white" stop-opacity="0.07"/>
</linearGradient>
<linearGradient id="paint76_linear" x1="1016.58" y1="499.107" x2="1016.58" y2="42.1081" gradientUnits="userSpaceOnUse">
<stop stop-color="#0F1145" stop-opacity="0"/>
<stop offset="1" stop-color="white" stop-opacity="0.07"/>
</linearGradient>
<linearGradient id="paint77_linear" x1="1016.59" y1="50.7427" x2="1016.59" y2="42.4196" gradientUnits="userSpaceOnUse">
<stop stop-color="#0F1145" stop-opacity="0"/>
<stop offset="1" stop-color="white" stop-opacity="0.07"/>
</linearGradient>
<linearGradient id="paint78_linear" x1="1012.13" y1="463.863" x2="1012.13" y2="78.0158" gradientUnits="userSpaceOnUse">
<stop stop-color="#0F1145" stop-opacity="0"/>
<stop offset="1" stop-color="white" stop-opacity="0.07"/>
</linearGradient>
<linearGradient id="paint79_linear" x1="1012.18" y1="85.9822" x2="1012.18" y2="77.6591" gradientUnits="userSpaceOnUse">
<stop stop-color="#0F1145" stop-opacity="0"/>
<stop offset="1" stop-color="white" stop-opacity="0.07"/>
</linearGradient>
<linearGradient id="paint80_linear" x1="1069.33" y1="456.31" x2="1069.33" y2="85.7095" gradientUnits="userSpaceOnUse">
<stop stop-color="#0F1145" stop-opacity="0"/>
<stop offset="1" stop-color="white" stop-opacity="0.07"/>
</linearGradient>
<linearGradient id="paint81_linear" x1="1069.34" y1="93.5328" x2="1069.34" y2="85.2096" gradientUnits="userSpaceOnUse">
<stop stop-color="#0F1145" stop-opacity="0"/>
<stop offset="1" stop-color="white" stop-opacity="0.07"/>
</linearGradient>
<linearGradient id="paint82_linear" x1="1015.63" y1="499.909" x2="1015.63" y2="41.2903" gradientUnits="userSpaceOnUse">
<stop stop-color="#0F1145" stop-opacity="0"/>
<stop offset="1" stop-color="white" stop-opacity="0.07"/>
</linearGradient>
<linearGradient id="paint83_linear" x1="1015.64" y1="49.9402" x2="1015.64" y2="41.6171" gradientUnits="userSpaceOnUse">
<stop stop-color="#0F1145" stop-opacity="0"/>
<stop offset="1" stop-color="white" stop-opacity="0.07"/>
</linearGradient>
<linearGradient id="paint84_linear" x1="1036.79" y1="488.417" x2="1036.79" y2="52.963" gradientUnits="userSpaceOnUse">
<stop stop-color="#0F1145" stop-opacity="0"/>
<stop offset="1" stop-color="white" stop-opacity="0.07"/>
</linearGradient>
<linearGradient id="paint85_linear" x1="1036.8" y1="61.3953" x2="1036.8" y2="53.0722" gradientUnits="userSpaceOnUse">
<stop stop-color="#0F1145" stop-opacity="0"/>
<stop offset="1" stop-color="white" stop-opacity="0.07"/>
</linearGradient>
<linearGradient id="paint86_linear" x1="1092.9" y1="464.191" x2="1092.9" y2="77.7179" gradientUnits="userSpaceOnUse">
<stop stop-color="#0F1145" stop-opacity="0"/>
<stop offset="1" stop-color="white" stop-opacity="0.07"/>
</linearGradient>
<linearGradient id="paint87_linear" x1="1092.91" y1="85.6536" x2="1092.91" y2="77.3305" gradientUnits="userSpaceOnUse">
<stop stop-color="#0F1145" stop-opacity="0"/>
<stop offset="1" stop-color="white" stop-opacity="0.07"/>
</linearGradient>
<linearGradient id="paint88_linear" x1="1072.58" y1="468.933" x2="1072.58" y2="72.8483" gradientUnits="userSpaceOnUse">
<stop stop-color="#0F1145" stop-opacity="0"/>
<stop offset="1" stop-color="white" stop-opacity="0.07"/>
</linearGradient>
<linearGradient id="paint89_linear" x1="1072.59" y1="80.9109" x2="1072.59" y2="72.5878" gradientUnits="userSpaceOnUse">
<stop stop-color="#0F1145" stop-opacity="0"/>
<stop offset="1" stop-color="white" stop-opacity="0.07"/>
</linearGradient>
<linearGradient id="paint90_linear" x1="1096.58" y1="537.745" x2="1096.58" y2="2.7444" gradientUnits="userSpaceOnUse">
<stop stop-color="#0F1145" stop-opacity="0"/>
<stop offset="1" stop-color="white" stop-opacity="0.07"/>
</linearGradient>
<linearGradient id="paint91_linear" x1="1096.59" y1="12.1119" x2="1096.59" y2="3.78875" gradientUnits="userSpaceOnUse">
<stop stop-color="#0F1145" stop-opacity="0"/>
<stop offset="1" stop-color="white" stop-opacity="0.07"/>
</linearGradient>
<linearGradient id="paint92_linear" x1="1156.04" y1="441.643" x2="1156.04" y2="100.689" gradientUnits="userSpaceOnUse">
<stop stop-color="#0F1145" stop-opacity="0"/>
<stop offset="1" stop-color="white" stop-opacity="0.07"/>
</linearGradient>
<linearGradient id="paint93_linear" x1="1156.05" y1="108.197" x2="1156.05" y2="99.8742" gradientUnits="userSpaceOnUse">
<stop stop-color="#0F1145" stop-opacity="0"/>
<stop offset="1" stop-color="white" stop-opacity="0.07"/>
</linearGradient>
<linearGradient id="paint94_linear" x1="1227.91" y1="432.522" x2="1227.91" y2="109.945" gradientUnits="userSpaceOnUse">
<stop stop-color="#0F1145" stop-opacity="0"/>
<stop offset="1" stop-color="white" stop-opacity="0.07"/>
</linearGradient>
<linearGradient id="paint95_linear" x1="1227.95" y1="117.317" x2="1227.95" y2="108.994" gradientUnits="userSpaceOnUse">
<stop stop-color="#0F1145" stop-opacity="0"/>
<stop offset="1" stop-color="white" stop-opacity="0.07"/>
</linearGradient>
<linearGradient id="paint96_linear" x1="1235.02" y1="526.69" x2="1235.02" y2="14.0073" gradientUnits="userSpaceOnUse">
<stop stop-color="#0F1145" stop-opacity="0"/>
<stop offset="1" stop-color="white" stop-opacity="0.07"/>
</linearGradient>
<linearGradient id="paint97_linear" x1="1235.03" y1="23.1653" x2="1235.03" y2="14.8422" gradientUnits="userSpaceOnUse">
<stop stop-color="#0F1145" stop-opacity="0"/>
<stop offset="1" stop-color="white" stop-opacity="0.07"/>
</linearGradient>
<linearGradient id="paint98_linear" x1="1197.01" y1="446.058" x2="1197.01" y2="96.118" gradientUnits="userSpaceOnUse">
<stop stop-color="#0F1145" stop-opacity="0"/>
<stop offset="1" stop-color="white" stop-opacity="0.07"/>
</linearGradient>
<linearGradient id="paint99_linear" x1="1197.02" y1="103.747" x2="1197.02" y2="95.424" gradientUnits="userSpaceOnUse">
<stop stop-color="#0F1145" stop-opacity="0"/>
<stop offset="1" stop-color="white" stop-opacity="0.07"/>
</linearGradient>
<linearGradient id="paint100_linear" x1="1265.55" y1="510.636" x2="1265.55" y2="30.3623" gradientUnits="userSpaceOnUse">
<stop stop-color="#0F1145" stop-opacity="0"/>
<stop offset="1" stop-color="white" stop-opacity="0.07"/>
</linearGradient>
<linearGradient id="paint101_linear" x1="1265.6" y1="39.2156" x2="1265.6" y2="30.8925" gradientUnits="userSpaceOnUse">
<stop stop-color="#0F1145" stop-opacity="0"/>
<stop offset="1" stop-color="white" stop-opacity="0.07"/>
</linearGradient>
<linearGradient id="paint102_linear" x1="1292.95" y1="530.739" x2="1292.95" y2="9.88092" gradientUnits="userSpaceOnUse">
<stop stop-color="#0F1145" stop-opacity="0"/>
<stop offset="1" stop-color="white" stop-opacity="0.07"/>
</linearGradient>
<linearGradient id="paint103_linear" x1="1292.96" y1="19.1155" x2="1292.96" y2="10.7924" gradientUnits="userSpaceOnUse">
<stop stop-color="#0F1145" stop-opacity="0"/>
<stop offset="1" stop-color="white" stop-opacity="0.07"/>
</linearGradient>
<linearGradient id="paint104_linear" x1="1282.52" y1="471.123" x2="1282.52" y2="70.5821" gradientUnits="userSpaceOnUse">
<stop stop-color="#0F1145" stop-opacity="0"/>
<stop offset="1" stop-color="white" stop-opacity="0.07"/>
</linearGradient>
<linearGradient id="paint105_linear" x1="1282.56" y1="78.6863" x2="1282.56" y2="70.3632" gradientUnits="userSpaceOnUse">
<stop stop-color="#0F1145" stop-opacity="0"/>
<stop offset="1" stop-color="white" stop-opacity="0.07"/>
</linearGradient>
<linearGradient id="paint106_linear" x1="1290.65" y1="459.046" x2="1290.65" y2="82.9218" gradientUnits="userSpaceOnUse">
<stop stop-color="#0F1145" stop-opacity="0"/>
<stop offset="1" stop-color="white" stop-opacity="0.07"/>
</linearGradient>
<linearGradient id="paint107_linear" x1="1290.66" y1="90.7967" x2="1290.66" y2="82.4736" gradientUnits="userSpaceOnUse">
<stop stop-color="#0F1145" stop-opacity="0"/>
<stop offset="1" stop-color="white" stop-opacity="0.07"/>
</linearGradient>
<linearGradient id="paint108_linear" x1="1367.62" y1="525.485" x2="1367.62" y2="15.2702" gradientUnits="userSpaceOnUse">
<stop stop-color="#0F1145" stop-opacity="0"/>
<stop offset="1" stop-color="white" stop-opacity="0.07"/>
</linearGradient>
<linearGradient id="paint109_linear" x1="1367.67" y1="24.3685" x2="1367.67" y2="16.0453" gradientUnits="userSpaceOnUse">
<stop stop-color="#0F1145" stop-opacity="0"/>
<stop offset="1" stop-color="white" stop-opacity="0.07"/>
</linearGradient>
<linearGradient id="paint110_linear" x1="1376.27" y1="498.633" x2="1376.27" y2="42.5917" gradientUnits="userSpaceOnUse">
<stop stop-color="#0F1145" stop-opacity="0"/>
<stop offset="1" stop-color="white" stop-opacity="0.07"/>
</linearGradient>
<linearGradient id="paint111_linear" x1="1376.28" y1="51.2174" x2="1376.28" y2="42.8942" gradientUnits="userSpaceOnUse">
<stop stop-color="#0F1145" stop-opacity="0"/>
<stop offset="1" stop-color="white" stop-opacity="0.07"/>
</linearGradient>
<linearGradient id="paint112_linear" x1="1396.33" y1="461.163" x2="1396.33" y2="80.8034" gradientUnits="userSpaceOnUse">
<stop stop-color="#0F1145" stop-opacity="0"/>
<stop offset="1" stop-color="white" stop-opacity="0.07"/>
</linearGradient>
<linearGradient id="paint113_linear" x1="1396.34" y1="88.6817" x2="1396.34" y2="80.3586" gradientUnits="userSpaceOnUse">
<stop stop-color="#0F1145" stop-opacity="0"/>
<stop offset="1" stop-color="white" stop-opacity="0.07"/>
</linearGradient>
</defs>
</svg>
