<svg width="114" height="44" fill="none" xmlns="http://www.w3.org/2000/svg"><path d="M16.877 29.024l.945-.326-.232-.674h-.713v1zm-7.924 0v-1h-.708l-.235.668.943.332zM7.553 33v1h.708l.235-.668L7.553 33zM3.38 33l-.937-.35L1.94 34h1.44v-1zm7.28-19.544v-1h-.695l-.242.65.937.35zm4.508 0l.938-.348-.242-.652h-.696v1zM22.42 33v1h1.438l-.5-1.348-.938.348zm-4.172 0l-.945.326.232.674h.713v-1zm-2.436-6.972v1h1.408l-.464-1.33-.944.33zM12.9 17.684l.944-.33-.944-2.705-.944 2.706.944.329zm-2.912 8.344l-.944-.33-.464 1.33h1.408v-1zm6.888 1.996H8.953v2h7.924v-2zm-8.867.668l-1.4 3.976 1.886.664 1.4-3.976-1.886-.664zM7.553 32H3.38v2h4.172v-2zm-3.235 1.35l7.28-19.545-1.874-.698-7.28 19.544 1.874.698zm6.343-18.894h4.508v-2H10.66v2zm3.57-.652l7.252 19.544 1.875-.696-7.252-19.544-1.875.696zM22.421 32h-4.172v2h4.172v-2zm-3.227.674l-1.372-3.976-1.89.652 1.372 3.976 1.89-.652zm-2.437-6.976l-2.912-8.343-1.888.659 2.912 8.344 1.888-.66zm-4.8-8.343l-2.912 8.343 1.888.66 2.912-8.345-1.888-.659zm-1.968 9.673h5.824v-2H9.989v2zm23.999-8.812l-.551.835.55-.835zm1.988 2.492l-.937.351 1.937-.351h-1zm0-3.22v-1h-1v1h1zm3.92 0h1v-1h-1v1zm-.868 19.432l-.892-.453-.004.009-.004.008.9.436zm-2.548 2.716l-.498-.867-.006.003.504.864zm-9.52-.616l.61-.792-.61.792zm-2.52-4.34v-1h-1.177l.19 1.161.987-.161zm3.892 0l.961-.275-.207-.725h-.754v1zm1.288 1.82l.565-.825-.005-.003-.56.828zm5.292-.364l-.688-.726-.01.01.698.716zm1.064-6.384h1l-1.937-.351.937.351zm-1.988 2.52l.55.835.012-.008-.562-.827zm-6.888-.028l-.52.855.52-.855zM24.636 29.5l-.903.43.004.009.004.008.895-.447zm0-8.484l-.897-.442-.003.006.9.436zm2.464-2.772l.519.855-.52-.855zm1.792 3.696l.732.681-.732-.681zm0 6.608l-.732.681.008.009.724-.69zm5.908-.028l-.724-.69.724.69zm0-6.552l-.732.682.008.008.008.009.716-.699zm-4.172-3.676c1.144 0 2.065.268 2.809.759l1.102-1.67c-1.123-.74-2.442-1.089-3.911-1.089v2zm2.809.759a4.033 4.033 0 011.602 2.008l1.873-.702a6.031 6.031 0 00-2.373-2.976l-1.102 1.67zm3.539 1.657v-3.22h-2v3.22h2zm-1-2.22h3.92v-2h-3.92v2zm2.92-1v15.568h2V17.488h-2zm0 15.568c0 1.3-.26 2.43-.76 3.41l1.783.907c.659-1.296.977-2.742.977-4.317h-2zm-.768 3.428a5.173 5.173 0 01-2.146 2.285l.995 1.734a7.172 7.172 0 002.95-3.147l-1.8-.872zm-2.152 2.288c-.935.545-2.114.844-3.584.844v2c1.74 0 3.286-.355 4.592-1.116l-1.008-1.728zm-3.584.844c-2.083 0-3.66-.493-4.822-1.388l-1.22 1.584c1.6 1.233 3.644 1.804 6.042 1.804v-2zm-4.822-1.388c-1.167-.899-1.883-2.113-2.143-3.71l-1.974.323c.337 2.063 1.3 3.742 2.896 4.971l1.221-1.584zm-3.13-2.548h3.892v-2H24.44v2zm2.93-.725c.284.994.847 1.803 1.69 2.373l1.12-1.656c-.427-.29-.723-.693-.887-1.267l-1.923.55zm1.684 2.37c.86.59 1.903.847 3.058.847v-2c-.861 0-1.48-.19-1.927-.497l-1.13 1.65zm3.058.847c1.37 0 2.57-.416 3.497-1.32l-1.395-1.432c-.491.478-1.158.752-2.102.752v2zm3.487-1.31c.98-.928 1.377-2.266 1.377-3.806h-2c0 1.223-.313 1.938-.752 2.354l1.376 1.452zm1.377-3.806v-3.304h-2v3.304h2zm-1.937-3.655a4.183 4.183 0 01-1.614 2.044L34.55 33.1a6.182 6.182 0 002.362-2.996l-1.873-.702zm-1.602 2.036c-.744.491-1.665.759-2.81.759v2c1.47 0 2.789-.348 3.912-1.09l-1.102-1.669zm-2.81.759c-1.136 0-2.13-.274-3.008-.807L26.58 33.1c1.212.736 2.57 1.097 4.047 1.097v-2zm-3.008-.807c-.87-.528-1.568-1.294-2.089-2.336l-1.789.894c.674 1.347 1.619 2.41 2.84 3.152l1.038-1.71zm-2.08-2.32c-.503-1.053-.771-2.32-.771-3.825h-2c0 1.742.31 3.314.965 4.686l1.805-.86zm-.771-3.825c0-1.506.268-2.76.768-3.792l-1.8-.872c-.658 1.358-.968 2.922-.968 4.664h2zm.765-3.786c.522-1.061 1.22-1.834 2.086-2.36L26.58 17.39c-1.225.744-2.17 1.82-2.842 3.185l1.794.884zm2.086-2.36c.878-.532 1.872-.806 3.009-.806v-2c-1.477 0-2.835.361-4.047 1.097l1.038 1.71zm4.24.638c-1.471 0-2.74.49-3.7 1.523l1.465 1.362c.533-.573 1.244-.885 2.236-.885v-2zm-3.7 1.523c-.962 1.035-1.387 2.405-1.387 3.985h2c0-1.22.321-2.052.852-2.623L28.16 21.26zm-1.387 3.985c0 1.58.425 2.95 1.388 3.985l1.464-1.362c-.53-.57-.852-1.403-.852-2.623h-2zm1.396 3.994c.962 1.01 2.227 1.486 3.692 1.486v-2c-1 0-1.713-.308-2.244-.866l-1.448 1.38zm3.692 1.486c1.444 0 2.694-.497 3.663-1.514l-1.447-1.38c-.561.588-1.272.894-2.216.894v2zm3.663-1.514c.996-1.043 1.453-2.4 1.453-3.966h-2c0 1.16-.328 1.986-.9 2.585l1.447 1.381zm1.453-3.966c0-1.579-.454-2.944-1.46-3.975l-1.432 1.398c.562.574.892 1.393.892 2.577h2zm-1.445-3.958c-.967-1.038-2.22-1.55-3.671-1.55v2c.937 0 1.645.31 2.208.914l1.463-1.364zM57.921 26v1h.833l.15-.818-.982-.182zm-11.367 0v-1h-1.042l.042 1.04 1-.04zm1.12 3.052l-.688.727.688-.727zm4.844.308l-.589-.809-.006.005-.005.004.6.8zm1.176-1.82v-1h-.805l-.172.786.977.214zm4.172 0l.982.186.225-1.186h-1.207v1zm-1.316 2.912l-.788-.616.788.616zm-2.604 2.016l-.415-.91-.006.003.42.907zm-7.532-.224l-.486.874.01.006.476-.88zm-2.744-2.772l-.878.48.878-.48zm0-8.456l.877.48.003-.006-.88-.474zm2.744-2.772l.475.88-.475-.88zm8.036 0l-.487.873.006.004.48-.877zm2.66 2.632l-.877.482.005.009.005.008.867-.499zm-3.024 3.388v1h.956l.043-.956-1-.044zm-1.008-2.884l-.678.736.01.008.668-.744zm-6.524 2.884l-.999-.059-.062 1.059h1.06v-1zm10.508.392c0 .316-.038.7-.124 1.162l1.967.364a8.46 8.46 0 00.157-1.526h-2zm.86.344H46.554v2h11.368v-2zm-12.367 1.04c.061 1.524.48 2.838 1.431 3.739l1.375-1.453c-.43-.407-.758-1.128-.808-2.367l-1.998.082zm1.431 3.739c.892.843 2.004 1.253 3.264 1.253v-2c-.794 0-1.4-.244-1.89-.706l-1.374 1.453zm3.264 1.253c1.08 0 2.061-.267 2.868-.872l-1.2-1.6c-.389.291-.92.472-1.668.472v2zm2.856-.863c.82-.597 1.346-1.418 1.564-2.415l-1.953-.428c-.117.534-.376.926-.788 1.225l1.177 1.618zm.588-1.629h4.172v-2h-4.172v2zm3.19-1.186a5.675 5.675 0 01-1.122 2.482l1.575 1.232a7.673 7.673 0 001.511-3.342l-1.965-.372zm-1.122 2.482c-.566.723-1.302 1.298-2.231 1.722l.83 1.82c1.199-.547 2.198-1.316 2.976-2.31l-1.575-1.232zm-2.237 1.725c-.9.417-1.92.635-3.08.635v2c1.417 0 2.73-.267 3.922-.821l-.842-1.814zm-3.08.635c-1.368 0-2.545-.286-3.556-.832l-.95 1.76c1.34.723 2.85 1.072 4.507 1.072v-2zM46.9 31.37a5.882 5.882 0 01-2.352-2.378l-1.755.96a7.881 7.881 0 003.136 3.166l.971-1.748zm-2.352-2.378c-.559-1.021-.857-2.26-.857-3.748h-2c0 1.76.354 3.34 1.102 4.708l1.755-.96zm-.857-3.748c0-1.489.298-2.727.857-3.748l-1.755-.96c-.748 1.368-1.102 2.949-1.102 4.708h2zm.86-3.754c.564-1.047 1.34-1.827 2.339-2.366l-.95-1.76c-1.354.73-2.407 1.798-3.15 3.178l1.761.948zm2.339-2.366c1.011-.546 2.188-.832 3.557-.832v-2c-1.656 0-3.167.349-4.507 1.072l.95 1.76zm3.557-.832c1.39 0 2.551.287 3.517.825l.974-1.747c-1.312-.73-2.82-1.078-4.491-1.078v2zm3.523.829c.996.546 1.743 1.29 2.264 2.237l1.753-.964c-.71-1.292-1.737-2.304-3.055-3.027l-.962 1.754zm2.274 2.254c.538.933.819 2.017.819 3.281h2c0-1.573-.354-3.009-1.086-4.28l-1.733 1zm-1.158 2.933c.065-1.472-.326-2.762-1.34-3.672l-1.335 1.488c.442.397.724 1.03.677 2.096l1.998.088zm-1.33-3.663c-.91-.839-2.036-1.245-3.31-1.245v2c.818 0 1.447.247 1.955.716l1.355-1.471zm-3.31-1.245c-1.287 0-2.427.403-3.355 1.236l1.336 1.488c.527-.473 1.179-.724 2.02-.724v-2zm-3.355 1.236c-.978.877-1.45 2.119-1.535 3.57l1.997.117c.064-1.089.395-1.77.874-2.199l-1.336-1.488zm-.536 4.628h7.532v-2h-7.532v2zm27.834-6.236l.742-.67-.742.67zM75.984 33v1h1v-1h-1zm-3.92 0h-1v1h1v-1zm-.952-11.424l-.736.677.01.01.726-.687zm-5.292.056l-.734-.678.734.678zM64.812 33v1h1v-1h-1zm-3.948 0h-1v1h1v-1zm0-15.512v-1h-1v1h1zm3.948 0h1v-1h-1v1zm0 3.108h-1l1.931.366-.93-.366zm2.016-2.436l.527.85.005-.003-.532-.847zm3.276.104c1.55 0 2.694.497 3.543 1.435l1.483-1.342c-1.28-1.414-2.992-2.093-5.026-2.093v2zm3.543 1.435c.847.937 1.337 2.319 1.337 4.285h2c0-2.29-.574-4.212-1.854-5.627L73.647 19.7zm1.337 4.285V33h2v-9.016h-2zm1 8.016h-3.92v2h3.92v-2zm-2.92 1v-8.568h-2V33h2zm0-8.568c0-1.4-.363-2.63-1.225-3.543l-1.454 1.374c.408.431.68 1.105.68 2.169h2zm-1.215-3.533c-.858-.933-2.013-1.359-3.34-1.359v2c.874 0 1.455.264 1.867.713l1.473-1.354zm-3.34-1.359c-1.36 0-2.537.453-3.424 1.414l1.47 1.356c.457-.495 1.072-.77 1.953-.77v-2zm-3.424 1.414c-.897.972-1.273 2.295-1.273 3.814h2c0-1.207.297-1.974.743-2.458l-1.47-1.356zm-1.273 3.814V33h2v-8.232h-2zm1 7.232h-3.948v2h3.948v-2zm-2.948 1V17.488h-2V33h2zm-1-14.512h3.948v-2h-3.948v2zm2.948-1v3.108h2v-3.108h-2zm1.931 3.474c.334-.85.867-1.49 1.612-1.952l-1.054-1.7a5.89 5.89 0 00-2.42 2.92l1.862.732zm1.617-1.955c.777-.488 1.681-.743 2.744-.743v-2c-1.401 0-2.68.342-3.807 1.049l1.063 1.694zm24.054-.091l-.633.774.006.005.627-.779zm2.52 4.424v1h1.196l-.212-1.177-.984.177zm-4.172 0l-.98.2.164.8h.816v-1zm-1.148-1.932l-.63.776.007.006.007.006.616-.788zm-4.9.448l-.742-.67.742.67zm0 6.804l-.75.661.008.01.009.009.733-.68zm4.9.448l.616.788.007-.006.008-.006-.631-.776zm1.148-1.96v-1h-.816l-.164.8.98.2zm4.172 0l.984.177.212-1.177h-1.196v1zm-2.52 4.424l-.627-.779-.006.005.633.774zm-9.016.672l-.486.874.011.006.475-.88zm-2.744-2.772l-.877.48.877-.48zm0-8.456l.877.48.003-.006-.88-.474zm2.744-2.772l.475.88-.475-.88zm4.032.048c1.807 0 3.234.485 4.351 1.398l1.266-1.548c-1.533-1.253-3.43-1.85-5.617-1.85v2zm4.357 1.403c1.137.916 1.865 2.167 2.163 3.822l1.968-.354c-.374-2.079-1.326-3.777-2.877-5.026l-1.254 1.558zm3.147 2.645h-4.172v2h4.172v-2zm-3.192.8c-.21-1.028-.707-1.891-1.512-2.52l-1.232 1.576c.39.304.658.73.784 1.344l1.96-.4zm-1.497-2.508c-.808-.656-1.8-.952-2.899-.952v2c.73 0 1.25.19 1.637.504l1.262-1.552zm-2.899-.952c-1.332 0-2.477.514-3.374 1.505l1.484 1.342c.522-.577 1.13-.847 1.89-.847v-2zm-3.374 1.506c-.918 1.017-1.294 2.427-1.294 4.058h2c0-1.355.315-2.204.778-2.718l-1.484-1.34zm-1.294 4.058c0 1.633.377 3.046 1.286 4.077l1.5-1.322c-.472-.537-.786-1.402-.786-2.755h-2zm1.303 4.096c.898.97 2.042 1.468 3.365 1.468v-2c-.767 0-1.379-.267-1.899-.828l-1.466 1.36zm3.365 1.468c1.09 0 2.076-.281 2.884-.912l-1.232-1.576c-.387.303-.913.488-1.652.488v2zm2.899-.924c.793-.644 1.287-1.51 1.497-2.536l-1.96-.4c-.126.616-.397 1.058-.799 1.384l1.262 1.552zm.517-1.736h4.172v-2h-4.172v2zm3.188-1.177c-.298 1.655-1.026 2.906-2.163 3.822l1.254 1.558c1.55-1.25 2.503-2.947 2.877-5.026l-1.968-.354zm-2.169 3.827c-1.117.913-2.544 1.398-4.351 1.398v2c2.188 0 4.084-.597 5.617-1.85l-1.266-1.548zm-4.351 1.398c-1.368 0-2.545-.286-3.557-.832l-.95 1.76c1.34.723 2.851 1.072 4.507 1.072v-2zm-3.546-.826a5.882 5.882 0 01-2.353-2.378l-1.754.96a7.882 7.882 0 003.135 3.166l.972-1.748zm-2.353-2.378c-.558-1.021-.857-2.26-.857-3.748h-2c0 1.76.355 3.34 1.103 4.708l1.754-.96zm-.857-3.748c0-1.489.299-2.727.857-3.748l-1.754-.96c-.748 1.368-1.103 2.949-1.103 4.708h2zm.86-3.754c.564-1.047 1.34-1.827 2.339-2.366l-.95-1.76c-1.353.73-2.407 1.798-3.15 3.178l1.761.948zm2.339-2.366c1.012-.546 2.189-.832 3.557-.832v-2c-1.656 0-3.167.349-4.507 1.072l.95 1.76zm16.526-1.636l.928-.373-.252-.627h-.676v1zm4.228 10.528l-.928.373.964 2.398.901-2.422-.937-.349zm3.92-10.528v-1h-.694l-.243.651.937.349zm4.34 0l.924.383.573-1.383h-1.497v1zm-9.492 22.904v1h.668l.256-.617-.924-.383zm-4.368 0l-.913-.408-.628 1.408h1.541v-1zm3.5-7.84l.913.408.18-.402-.175-.403-.918.397zm-6.524-15.064v-1H93.48l.606 1.397.917-.397zm3.468.373l4.228 10.528 1.856-.746-4.228-10.528-1.856.746zm6.093 10.504l3.92-10.528-1.874-.698-3.92 10.528 1.874.698zm2.983-9.877h4.34v-2h-4.34v2zm3.416-1.383l-9.492 22.904 1.848.766 9.492-22.904-1.848-.766zm-8.568 22.287h-4.368v2h4.368v-2zM98.94 40.8l3.5-7.84-1.826-.816-3.5 7.84 1.826.816zm3.505-8.645L95.921 17.09l-1.835.794 6.524 15.064 1.835-.794zm-7.442-13.667H99.4v-2h-4.396v2z" fill="#CE7A2D"/><path d="M14.111 27.276H6.327L5.04 31H.923l7.028-19.572h4.564L19.543 31H15.4l-1.288-3.724zm-1.064-3.136l-2.828-8.176-2.828 8.176h5.656zm15.2-8.904c1.157 0 2.174.233 3.051.7.878.448 1.568 1.036 2.072 1.764v-2.212h3.948v15.624c0 1.437-.29 2.716-.868 3.836-.578 1.139-1.446 2.035-2.604 2.688-1.157.672-2.557 1.008-4.2 1.008-2.202 0-4.013-.513-5.432-1.54-1.4-1.027-2.193-2.427-2.38-4.2h3.892c.206.71.644 1.27 1.316 1.68.69.43 1.522.644 2.492.644 1.139 0 2.063-.345 2.772-1.036.71-.672 1.064-1.699 1.064-3.08v-2.408c-.504.728-1.204 1.335-2.1 1.82-.877.485-1.885.728-3.024.728a6.662 6.662 0 01-3.584-1.008c-1.082-.672-1.941-1.615-2.576-2.828-.616-1.232-.924-2.641-.924-4.228 0-1.568.308-2.959.924-4.172.635-1.213 1.484-2.147 2.548-2.8 1.083-.653 2.287-.98 3.612-.98zm5.123 8.008c0-.952-.186-1.764-.56-2.436-.373-.69-.877-1.213-1.512-1.568a3.964 3.964 0 00-2.044-.56c-.728 0-1.4.177-2.016.532-.616.355-1.12.877-1.512 1.568-.373.672-.56 1.475-.56 2.408 0 .933.187 1.755.56 2.464.392.69.896 1.223 1.512 1.596.635.373 1.307.56 2.016.56.728 0 1.41-.177 2.044-.532a4.074 4.074 0 001.512-1.568c.374-.69.56-1.512.56-2.464zm22.197-.336c0 .56-.038 1.064-.112 1.512h-11.34c.093 1.12.485 1.997 1.176 2.632.69.635 1.54.952 2.548.952 1.456 0 2.492-.625 3.108-1.876h4.228c-.448 1.493-1.307 2.725-2.576 3.696-1.27.952-2.828 1.428-4.676 1.428-1.494 0-2.837-.327-4.032-.98a7.213 7.213 0 01-2.772-2.828c-.654-1.213-.98-2.613-.98-4.2 0-1.605.326-3.015.98-4.228.653-1.213 1.568-2.147 2.744-2.8 1.176-.653 2.53-.98 4.06-.98 1.474 0 2.79.317 3.948.952a6.567 6.567 0 012.716 2.716c.653 1.157.98 2.492.98 4.004zm-4.06-1.12c-.019-1.008-.383-1.81-1.092-2.408-.71-.616-1.578-.924-2.604-.924-.97 0-1.792.299-2.464.896-.654.579-1.055 1.39-1.204 2.436h7.364zm15.517-6.524c1.848 0 3.341.588 4.48 1.764 1.139 1.157 1.708 2.781 1.708 4.872V31h-3.92v-8.568c0-1.232-.308-2.175-.924-2.828-.616-.672-1.456-1.008-2.52-1.008-1.083 0-1.941.336-2.576 1.008-.616.653-.924 1.596-.924 2.828V31h-3.92V15.488h3.92v1.932a5.314 5.314 0 011.988-1.568 6.16 6.16 0 012.688-.588zm8.908 7.98c0-1.605.326-3.005.98-4.2.653-1.213 1.558-2.147 2.716-2.8 1.157-.672 2.483-1.008 3.976-1.008 1.922 0 3.51.485 4.76 1.456 1.27.952 2.118 2.296 2.548 4.032h-4.228c-.224-.672-.607-1.195-1.148-1.568-.523-.392-1.176-.588-1.96-.588-1.12 0-2.007.41-2.66 1.232-.653.803-.98 1.95-.98 3.444 0 1.475.326 2.623.98 3.444.653.803 1.54 1.204 2.66 1.204 1.587 0 2.623-.71 3.108-2.128h4.228c-.43 1.68-1.279 3.015-2.548 4.004-1.27.99-2.856 1.484-4.76 1.484-1.493 0-2.819-.327-3.976-.98a7.125 7.125 0 01-2.716-2.8c-.654-1.213-.98-2.623-.98-4.228zm32.692-7.756L99.02 38.336h-4.172l3.36-7.728-6.216-15.12h4.396l4.004 10.836 4.06-10.836h4.172z" fill="#fff"/></svg>