<svg width="22" height="22" fill="none" xmlns="http://www.w3.org/2000/svg"><g clip-path="url(#clip0)"><path d="M22 11.067C22 4.954 17.075-.002 11-.002 4.923-.001-.003 4.954-.003 11.068c0 5.524 4.024 10.102 9.282 10.933v-7.735H6.487v-3.198h2.794v-2.44c0-2.774 1.643-4.306 4.156-4.306 1.204 0 2.462.216 2.462.216v2.723h-1.387c-1.366 0-1.792.854-1.792 1.73v2.076h3.05l-.487 3.198H12.72v7.734C17.977 21.17 22 16.59 22 11.067z" fill="#fff"/></g><defs><clipPath id="clip0"><path fill="#fff" d="M0 0h22v22H0z"/></clipPath></defs></svg>