<svg width="26" height="27" viewBox="0 0 26 27" fill="none" xmlns="http://www.w3.org/2000/svg">
<path d="M17.2161 17.7852C17.2161 18.9688 17.2161 20.0882 17.2161 21.2168C17.2161 22.4921 17.2161 23.7675 17.2161 25.0337C17.2161 25.7953 16.8307 26.199 16.0783 26.199C14.0047 26.2082 11.9311 26.2082 9.85744 26.199C9.16928 26.199 8.78392 25.7677 8.78392 25.0429C8.78392 22.7674 8.78392 20.4919 8.78392 18.2164C8.78392 18.088 8.78392 17.9503 8.78392 17.7852C8.60959 17.7852 8.48113 17.7852 8.3435 17.7852C6.10471 17.7852 3.85675 17.7852 1.61796 17.7852C0.727948 17.7852 0.360935 17.4273 0.360935 16.5373C0.360935 14.5646 0.360935 12.5919 0.360935 10.6192C0.360935 9.72003 0.718772 9.36219 1.60878 9.36219C3.8384 9.36219 6.06801 9.36219 8.29763 9.36219C8.44443 9.36219 8.58206 9.36219 8.77474 9.36219C8.77474 9.21539 8.77474 9.09611 8.77474 8.97683C8.77474 6.70134 8.77474 4.42585 8.77474 2.15036C8.77474 1.30622 9.15093 0.939209 9.99507 0.939209C11.9678 0.939209 13.9405 0.939209 15.9132 0.939209C16.8399 0.939209 17.1977 1.28787 17.1977 2.23294C17.2069 4.49008 17.1977 6.73804 17.1977 8.99518C17.1977 9.10528 17.1977 9.21539 17.1977 9.37137C17.3445 9.37137 17.473 9.37137 17.5923 9.37137C19.8678 9.37137 22.1433 9.37137 24.4187 9.38054C25.2537 9.38054 25.6115 9.74756 25.6115 10.5825C25.6115 12.5644 25.6115 14.5463 25.6115 16.5282C25.6115 17.4365 25.2629 17.7852 24.3729 17.7852C22.1065 17.7852 19.8402 17.7852 17.5831 17.7944C17.4913 17.7852 17.3812 17.7852 17.2161 17.7852Z" fill="url(#paint0_linear)"/>
<defs>
<linearGradient id="paint0_linear" x1="0.36656" y1="13.5783" x2="25.6299" y2="13.5783" gradientUnits="userSpaceOnUse">
<stop stop-color="#6CBCFC"/>
<stop offset="1" stop-color="#458DFC"/>
</linearGradient>
</defs>
</svg>
