<svg width="124" height="21" viewBox="0 0 124 21" fill="none" xmlns="http://www.w3.org/2000/svg">
<path d="M18.2 20L11.116 0.399999H7.252L0.14 20H3.64L5.012 16.052H13.356L14.728 20H18.2ZM9.184 4.18L12.292 13.028H6.076L9.184 4.18ZM27.5702 0.0359983C23.4262 -0.216002 21.2422 1.884 21.2422 5.72V6H19.1142V8.912H21.2422V20H24.2662V8.912H27.5702V6H24.2662V5.72C24.2662 3.676 25.3582 2.752 27.5702 2.948V0.0359983ZM32.9236 6H29.8996V20H32.9236V12.944C32.9236 11.516 33.3436 10.48 34.2116 9.864C35.0796 9.22 36.0876 8.94 37.2356 9.024V5.748C35.1356 5.748 33.6796 6.616 32.9236 8.352V6ZM42.8859 3.34C43.6699 2.556 43.6699 1.38 42.9139 0.623999C42.1579 -0.160001 40.9259 -0.160001 40.1699 0.623999C39.4139 1.38 39.4139 2.556 40.1699 3.34C40.9539 4.096 42.1299 4.096 42.8859 3.34ZM43.0539 20V6H40.0299V20H43.0539ZM58.2131 7.988C57.0651 6.42 55.4411 5.636 53.3131 5.636C51.3811 5.636 49.7571 6.336 48.3851 7.764C47.0131 9.192 46.3411 10.928 46.3411 13C46.3411 15.044 47.0131 16.808 48.3851 18.236C49.7571 19.664 51.3811 20.364 53.3131 20.364C55.4411 20.364 57.0651 19.58 58.2131 17.984V20H61.2371V6H58.2131V7.988ZM50.6251 16.22C49.7851 15.352 49.3651 14.288 49.3651 13C49.3651 11.712 49.7851 10.648 50.6251 9.808C51.4651 8.94 52.5291 8.52 53.7891 8.52C55.0491 8.52 56.1131 8.94 56.9531 9.808C57.7931 10.648 58.2131 11.712 58.2131 13C58.2131 14.288 57.7931 15.352 56.9531 16.22C56.1131 17.06 55.0491 17.48 53.7891 17.48C52.5291 17.48 51.4651 17.06 50.6251 16.22ZM72.6858 5.636C70.6978 5.636 69.2698 6.364 68.3458 7.792V6H65.3218V20H68.3458V12.496C68.3458 9.78 69.7738 8.464 71.9018 8.464C73.8338 8.464 75.0378 9.612 75.0378 11.712V20H78.0618V11.404C78.0618 7.82 75.9058 5.636 72.6858 5.636ZM84.5939 9.864C84.5939 8.884 85.4899 8.38 86.6379 8.38C87.8979 8.38 88.7939 8.912 89.2699 9.976L91.8179 8.548C90.8379 6.728 88.9619 5.636 86.6379 5.636C85.1819 5.636 83.9499 6.028 82.9699 6.812C81.9899 7.596 81.5139 8.632 81.5139 9.92C81.4579 12.86 84.2859 13.7 86.3859 14.232C87.8699 14.596 89.0459 15.128 89.0459 16.024C89.0459 17.06 88.2619 17.592 86.6659 17.592C85.0699 17.592 84.0339 16.92 83.5579 15.576L80.9539 17.088C81.8499 19.132 83.8939 20.364 86.6659 20.364C88.2339 20.364 89.5219 19.972 90.5579 19.216C91.5939 18.46 92.1259 17.396 92.1259 16.052C92.1819 13.056 89.3819 12.16 87.2259 11.684C85.7699 11.264 84.5939 10.788 84.5939 9.864ZM101.172 12.86L107.332 6H103.636L98.2041 12.188V0.399999H95.1801V20H98.2041V13.532L103.944 20H107.556L101.172 12.86ZM120.117 7.988C118.969 6.42 117.345 5.636 115.217 5.636C113.285 5.636 111.661 6.336 110.289 7.764C108.917 9.192 108.245 10.928 108.245 13C108.245 15.044 108.917 16.808 110.289 18.236C111.661 19.664 113.285 20.364 115.217 20.364C117.345 20.364 118.969 19.58 120.117 17.984V20H123.141V6H120.117V7.988ZM112.529 16.22C111.689 15.352 111.269 14.288 111.269 13C111.269 11.712 111.689 10.648 112.529 9.808C113.369 8.94 114.433 8.52 115.693 8.52C116.953 8.52 118.017 8.94 118.857 9.808C119.697 10.648 120.117 11.712 120.117 13C120.117 14.288 119.697 15.352 118.857 16.22C118.017 17.06 116.953 17.48 115.693 17.48C114.433 17.48 113.369 17.06 112.529 16.22Z" fill="white"/>
</svg>
