<svg width="650" height="678" viewBox="0 0 650 678" fill="none" xmlns="http://www.w3.org/2000/svg">
<g opacity="0.3" filter="url(#filter0_f)">
<path fill-rule="evenodd" clip-rule="evenodd" d="M507.209 352.001C496.173 386.669 470.914 413.19 448.037 441.462C428.326 465.821 407.32 487.535 382.292 506.373C354.414 527.356 328.122 556.558 293.273 557.946C258.311 559.339 228.951 533.407 200.067 513.634C172.911 495.044 153.575 469.427 130.166 446.286C98.1264 414.612 42.8334 396.642 36.5661 352.001C30.5073 308.845 74.4887 275.35 101.353 241.061C125.162 210.671 151.738 183.755 184.438 163.262C218.015 142.219 254.082 115.019 293.273 120.785C332.401 126.54 349.038 176.499 385.088 192.779C427.116 211.758 489.755 185.58 517.836 222.192C544.703 257.222 520.604 309.919 507.209 352.001Z" fill="#82FFE8"/>
</g>
<defs>
<filter id="filter0_f" x="-84" y="0" width="734" height="678" filterUnits="userSpaceOnUse" color-interpolation-filters="sRGB">
<feFlood flood-opacity="0" result="BackgroundImageFix"/>
<feBlend mode="normal" in="SourceGraphic" in2="BackgroundImageFix" result="shape"/>
<feGaussianBlur stdDeviation="60" result="effect1_foregroundBlur"/>
</filter>
</defs>
</svg>
