<svg width="107" height="23" viewBox="0 0 107 23" fill="none" xmlns="http://www.w3.org/2000/svg">
<path d="M8.58594 14.1924H5.08496V22H0.69043V0.671875H8.61523C11.1348 0.671875 13.0781 1.2334 14.4453 2.35645C15.8125 3.47949 16.4961 5.06641 16.4961 7.11719C16.4961 8.57227 16.1787 9.78809 15.5439 10.7646C14.9189 11.7314 13.9668 12.5029 12.6875 13.0791L17.3018 21.7949V22H12.585L8.58594 14.1924ZM5.08496 10.6328H8.62988C9.7334 10.6328 10.5879 10.3545 11.1934 9.79785C11.7988 9.23145 12.1016 8.45508 12.1016 7.46875C12.1016 6.46289 11.8135 5.67187 11.2373 5.0957C10.6709 4.51953 9.79688 4.23145 8.61523 4.23145H5.08496V10.6328ZM37.3701 11.8193C37.3701 13.9189 36.999 15.7598 36.2568 17.3418C35.5146 18.9238 34.4502 20.1445 33.0635 21.0039C31.6865 21.8633 30.1045 22.293 28.3174 22.293C26.5498 22.293 24.9727 21.8682 23.5859 21.0186C22.1992 20.1689 21.125 18.958 20.3633 17.3857C19.6016 15.8037 19.2158 13.9873 19.2061 11.9365V10.8818C19.2061 8.78223 19.582 6.93652 20.334 5.34473C21.0957 3.74316 22.165 2.51758 23.542 1.66797C24.9287 0.808594 26.5107 0.378906 28.2881 0.378906C30.0654 0.378906 31.6426 0.808594 33.0195 1.66797C34.4062 2.51758 35.4756 3.74316 36.2275 5.34473C36.9893 6.93652 37.3701 8.77734 37.3701 10.8672V11.8193ZM32.917 10.8525C32.917 8.61621 32.5166 6.91699 31.7158 5.75488C30.915 4.59277 29.7725 4.01172 28.2881 4.01172C26.8135 4.01172 25.6758 4.58789 24.875 5.74023C24.0742 6.88281 23.6689 8.5625 23.6592 10.7793V11.8193C23.6592 13.9971 24.0596 15.6865 24.8604 16.8877C25.6611 18.0889 26.8135 18.6895 28.3174 18.6895C29.792 18.6895 30.9248 18.1133 31.7158 16.9609C32.5068 15.7988 32.9072 14.1094 32.917 11.8926V10.8525ZM44.958 18.4697H54.2891V22H40.5635V0.671875H44.958V18.4697ZM61.2178 18.4697H70.5488V22H56.8232V0.671875H61.2178V18.4697ZM85.915 12.7568H77.4775V18.4697H87.3799V22H73.083V0.671875H87.3506V4.23145H77.4775V9.31445H85.915V12.7568ZM97.8535 14.1924H94.3525V22H89.958V0.671875H97.8828C100.402 0.671875 102.346 1.2334 103.713 2.35645C105.08 3.47949 105.764 5.06641 105.764 7.11719C105.764 8.57227 105.446 9.78809 104.812 10.7646C104.187 11.7314 103.234 12.5029 101.955 13.0791L106.569 21.7949V22H101.853L97.8535 14.1924ZM94.3525 10.6328H97.8975C99.001 10.6328 99.8555 10.3545 100.461 9.79785C101.066 9.23145 101.369 8.45508 101.369 7.46875C101.369 6.46289 101.081 5.67187 100.505 5.0957C99.9385 4.51953 99.0645 4.23145 97.8828 4.23145H94.3525V10.6328Z" fill="black"/>
</svg>
