<svg width="1440" height="40" viewBox="0 0 1440 40" fill="none" xmlns="http://www.w3.org/2000/svg">
<g clip-path="url(#clip0)">
<path d="M549.855 40.0002L563.545 -0.0078125H565.271L551.58 40.0002H549.855ZM540.984 40.0002L554.677 -0.0078125H556.405L542.71 40.0002H540.984ZM532.118 40.0002L545.809 -0.0078125H547.535L533.845 40.0002H532.118ZM523.249 40.0002L536.942 -0.0078125H538.668L524.975 40.0002H523.249ZM514.382 40.0002L528.074 -0.0078125H529.801L516.109 40.0002H514.382ZM505.511 40.0002L519.204 -0.0078125H520.931L507.238 40.0002H505.511ZM496.645 40.0002L510.337 -0.0078125H512.064L498.372 40.0002H496.645ZM487.778 40.0002L501.468 -0.0078125H503.194L489.505 40.0002H487.778ZM478.909 40.0002L492.601 -0.0078125H494.327L480.635 40.0002H478.909ZM470.042 40.0002L483.732 -0.0078125H485.458L471.768 40.0002H470.042ZM461.172 40.0002L474.864 -0.0078125H476.591L462.898 40.0002H461.172ZM452.305 40.0002L465.999 -0.0078125H467.725L454.032 40.0002H452.305ZM443.436 40.0002L457.128 -0.0078125H458.855L445.16 40.0002H443.436ZM434.569 40.0002L448.262 -0.0078125H449.988L436.295 40.0002H434.569ZM674.65 40.0002L688.341 -0.0078125H690.067L676.374 40.0002H674.65ZM665.779 40.0002L679.471 -0.0078125H681.199L667.506 40.0002H665.779ZM656.913 40.0002L670.603 -0.0078125H672.329L658.639 40.0002H656.913ZM648.044 40.0002L661.737 -0.0078125H663.462L649.77 40.0002H648.044ZM639.176 40.0002L652.869 -0.0078125H654.596L640.903 40.0002H639.176ZM630.306 40.0002L643.999 -0.0078125H645.725L632.033 40.0002H630.306ZM621.44 40.0002L635.133 -0.0078125H636.859L623.166 40.0002H621.44ZM612.573 40.0002L626.265 -0.0078125H627.989L614.3 40.0002H612.573ZM603.703 40.0002L617.396 -0.0078125H619.122L605.43 40.0002H603.703ZM594.837 40.0002L608.526 -0.0078125H610.252L596.563 40.0002H594.837ZM585.966 40.0002L599.659 -0.0078125H601.386L587.693 40.0002H585.966ZM577.1 40.0002L590.795 -0.0078125H592.52L578.827 40.0002H577.1ZM568.23 40.0002L581.922 -0.0078125H583.649L569.955 40.0002H568.23ZM559.364 40.0002L573.056 -0.0078125H574.782L561.09 40.0002H559.364ZM800.183 40.0002L813.873 -0.0078125H815.599L801.908 40.0002H800.183ZM791.313 40.0002L805.005 -0.0078125H806.732L793.04 40.0002H791.313ZM782.446 40.0002L796.137 -0.0078125H797.861L784.172 40.0002H782.446ZM773.577 40.0002L787.269 -0.0078125H788.995L775.302 40.0002H773.577ZM764.71 40.0002L778.403 -0.0078125H780.13L766.436 40.0002H764.71ZM755.839 40.0002L769.533 -0.0078125H771.26L757.566 40.0002H755.839ZM746.973 40.0002L760.666 -0.0078125H762.393L748.699 40.0002H746.973ZM738.107 40.0002L751.796 -0.0078125H753.522L739.833 40.0002H738.107ZM729.236 40.0002L742.93 -0.0078125H744.656L730.963 40.0002H729.236ZM720.371 40.0002L734.059 -0.0078125H735.786L722.096 40.0002H720.371ZM711.5 40.0002L725.193 -0.0078125H726.918L713.226 40.0002H711.5ZM702.634 40.0002L716.326 -0.0078125H718.053L704.361 40.0002H702.634ZM693.763 40.0002L707.456 -0.0078125H709.182L695.489 40.0002H693.763ZM684.898 40.0002L698.59 -0.0078125H700.316L686.624 40.0002H684.898ZM924.978 40.0002L938.667 -0.0078125H940.394L926.702 40.0002H924.978ZM916.107 40.0002L929.801 -0.0078125H931.528L917.834 40.0002H916.107ZM907.241 40.0002L920.931 -0.0078125H922.656L908.967 40.0002H907.241ZM898.371 40.0002L912.064 -0.0078125H913.79L900.097 40.0002H898.371ZM889.505 40.0002L903.197 -0.0078125H904.924L891.231 40.0002H889.505ZM880.634 40.0002L894.327 -0.0078125H896.054L882.361 40.0002H880.634ZM871.768 40.0002L885.46 -0.0078125H887.187L873.495 40.0002H871.768ZM862.901 40.0002L876.591 -0.0078125H878.317L864.627 40.0002H862.901ZM854.031 40.0002L867.724 -0.0078125H869.45L855.758 40.0002H854.031ZM845.165 40.0002L858.854 -0.0078125H860.582L846.889 40.0002H845.165ZM836.295 40.0002L849.987 -0.0078125H851.713L838.021 40.0002H836.295ZM827.428 40.0002L841.121 -0.0078125H842.848L829.154 40.0002H827.428ZM818.558 40.0002L832.25 -0.0078125H833.977L820.285 40.0002H818.558ZM809.692 40.0002L823.385 -0.0078125H825.111L811.418 40.0002H809.692ZM1049.46 40.0002L1063.15 -0.0078125H1064.88L1051.19 40.0002H1049.46ZM1040.59 40.0002L1054.28 -0.0078125H1056.01L1042.32 40.0002H1040.59ZM1031.72 40.0002L1045.42 -0.0078125H1047.14L1033.45 40.0002H1031.72ZM1022.86 40.0002L1036.55 -0.0078125H1038.27L1024.58 40.0002H1022.86ZM1013.99 40.0002L1027.68 -0.0078125H1029.41L1015.71 40.0002H1013.99ZM1005.12 40.0002L1018.81 -0.0078125H1020.54L1006.84 40.0002H1005.12ZM996.251 40.0002L1009.94 -0.0078125H1011.67L997.977 40.0002H996.251ZM987.384 40.0002L1001.07 -0.0078125H1002.8L989.111 40.0002H987.384ZM978.515 40.0002L992.207 -0.0078125H993.933L980.24 40.0002H978.515ZM969.648 40.0002L983.338 -0.0078125H985.063L971.374 40.0002H969.648ZM960.777 40.0002L974.47 -0.0078125H976.197L962.503 40.0002H960.777ZM951.911 40.0002L965.605 -0.0078125H967.33L953.638 40.0002H951.911ZM943.042 40.0002L956.734 -0.0078125H958.461L944.766 40.0002H943.042ZM934.175 40.0002L947.868 -0.0078125H949.593L935.901 40.0002H934.175ZM1174.26 40.0002L1187.95 -0.0078125H1189.67L1175.98 40.0002H1174.26ZM1165.38 40.0002L1179.08 -0.0078125H1180.81L1167.11 40.0002H1165.38ZM1156.52 40.0002L1170.21 -0.0078125H1171.93L1158.25 40.0002H1156.52ZM1147.65 40.0002L1161.34 -0.0078125H1163.07L1149.38 40.0002H1147.65ZM1138.78 40.0002L1152.47 -0.0078125H1154.2L1140.51 40.0002H1138.78ZM1129.91 40.0002L1143.6 -0.0078125H1145.33L1131.64 40.0002H1129.91ZM1121.05 40.0002L1134.74 -0.0078125H1136.46L1122.77 40.0002H1121.05ZM1112.18 40.0002L1125.87 -0.0078125H1127.6L1113.91 40.0002H1112.18ZM1103.31 40.0002L1117 -0.0078125H1118.73L1105.04 40.0002H1103.31ZM1094.44 40.0002L1108.13 -0.0078125H1109.86L1096.17 40.0002H1094.44ZM1085.57 40.0002L1099.26 -0.0078125H1100.99L1087.3 40.0002H1085.57ZM1076.71 40.0002L1090.4 -0.0078125H1092.13L1078.43 40.0002H1076.71ZM1067.84 40.0002L1081.53 -0.0078125H1083.26L1069.56 40.0002H1067.84ZM1058.97 40.0002L1072.66 -0.0078125H1074.39L1060.7 40.0002H1058.97ZM1299.79 40.0002L1313.48 -0.0078125H1315.2L1301.51 40.0002H1299.79ZM1290.92 40.0002L1304.61 -0.0078125H1306.34L1292.65 40.0002H1290.92ZM1282.05 40.0002L1295.74 -0.0078125H1297.47L1283.78 40.0002H1282.05ZM1273.18 40.0002L1286.88 -0.0078125H1288.6L1274.91 40.0002H1273.18ZM1264.32 40.0002L1278.01 -0.0078125H1279.74L1266.04 40.0002H1264.32ZM1255.44 40.0002L1269.14 -0.0078125H1270.87L1257.17 40.0002H1255.44ZM1246.58 40.0002L1260.27 -0.0078125H1262L1248.3 40.0002H1246.58ZM1237.71 40.0002L1251.4 -0.0078125H1253.13L1239.44 40.0002H1237.71ZM1228.84 40.0002L1242.54 -0.0078125H1244.26L1230.57 40.0002H1228.84ZM1219.98 40.0002L1233.66 -0.0078125H1235.39L1221.7 40.0002H1219.98ZM1211.11 40.0002L1224.8 -0.0078125H1226.52L1212.83 40.0002H1211.11ZM1202.24 40.0002L1215.93 -0.0078125H1217.66L1203.97 40.0002H1202.24ZM1193.37 40.0002L1207.06 -0.0078125H1208.79L1195.09 40.0002H1193.37ZM1184.5 40.0002L1198.2 -0.0078125H1199.92L1186.23 40.0002H1184.5ZM1424.58 40.0002L1438.27 -0.0078125H1440L1426.31 40.0002H1424.58ZM1415.71 40.0002L1429.41 -0.0078125H1431.13L1417.44 40.0002H1415.71ZM1406.85 40.0002L1420.54 -0.0078125H1422.26L1408.57 40.0002H1406.85ZM1397.98 40.0002L1411.67 -0.0078125H1413.4L1399.7 40.0002H1397.98ZM1389.11 40.0002L1402.8 -0.0078125H1404.53L1390.84 40.0002H1389.11ZM1380.24 40.0002L1393.93 -0.0078125H1395.66L1381.97 40.0002H1380.24ZM1371.37 40.0002L1385.07 -0.0078125H1386.79L1373.1 40.0002H1371.37ZM1362.51 40.0002L1376.2 -0.0078125H1377.92L1364.23 40.0002H1362.51ZM1353.64 40.0002L1367.33 -0.0078125H1369.06L1355.36 40.0002H1353.64ZM1344.77 40.0002L1358.46 -0.0078125H1360.19L1346.49 40.0002H1344.77ZM1335.9 40.0002L1349.59 -0.0078125H1351.32L1337.63 40.0002H1335.9ZM1327.03 40.0002L1340.73 -0.0078125H1342.45L1328.76 40.0002H1327.03ZM1318.16 40.0002L1331.86 -0.0078125H1333.58L1319.89 40.0002H1318.16ZM1309.3 40.0002L1322.99 -0.0078125H1324.72L1311.02 40.0002H1309.3ZM51.2866 40.0002L64.975 -0.0078125H66.7019L53.0104 40.0002H51.2866ZM42.415 40.0002L56.1075 -0.0078125H57.8354L44.1408 40.0002H42.415ZM33.5486 40.0002L47.24 -0.0078125H48.9659L35.2754 40.0002H33.5486ZM24.68 40.0002L38.3725 -0.0078125H40.0984L26.4058 40.0002H24.68ZM15.8125 40.0002L29.5051 -0.0078125H31.2319L17.5394 40.0002H15.8125ZM6.94196 40.0002L20.6345 -0.0078125H22.3613L8.66881 40.0002H6.94196ZM-1.9245 40.0002L11.768 -0.0078125H13.4949L-0.197643 40.0002H-1.9245ZM-10.7909 40.0002L2.89846 -0.0078125H4.62428L-9.06409 40.0002H-10.7909ZM-19.6605 40.0002L-5.96799 -0.0078125H-4.24217L-17.9347 40.0002H-19.6605ZM-28.527 40.0002L-14.8375 -0.0078125H-13.1117L-26.8022 40.0002H-28.527ZM-37.3975 40.0002L-23.705 -0.0078125H-21.9782L-35.6717 40.0002H-37.3975ZM-46.264 40.0002L-32.5704 -0.0078125H-30.8446L-44.5371 40.0002H-46.264ZM-55.1336 40.0002L-41.441 -0.0078125H-39.7142L-53.4088 40.0002H-55.1336ZM-64 40.0002L-50.3075 -0.0078125H-48.5817L-62.2742 40.0002H-64ZM176.08 40.0002L189.771 -0.0078125H191.497L177.805 40.0002H176.08ZM167.21 40.0002L180.902 -0.0078125H182.63L168.937 40.0002H167.21ZM158.343 40.0002L172.034 -0.0078125H173.759L160.07 40.0002H158.343ZM149.475 40.0002L163.167 -0.0078125H164.893L151.201 40.0002H149.475ZM140.607 40.0002L154.3 -0.0078125H156.027L142.334 40.0002H140.607ZM131.737 40.0002L145.429 -0.0078125H147.156L133.464 40.0002H131.737ZM122.871 40.0002L136.564 -0.0078125H138.29L124.597 40.0002H122.871ZM114.004 40.0002L127.693 -0.0078125H129.419L115.731 40.0002H114.004ZM105.134 40.0002L118.827 -0.0078125H120.553L106.86 40.0002H105.134ZM96.2677 40.0002L109.957 -0.0078125H111.683L97.9925 40.0002H96.2677ZM87.3971 40.0002L101.09 -0.0078125H102.817L89.124 40.0002H87.3971ZM78.5307 40.0002L92.2253 -0.0078125H93.9511L80.2575 40.0002H78.5307ZM69.6611 40.0002L83.3526 -0.0078125H85.0795L71.3859 40.0002H69.6611ZM60.7947 40.0002L74.4872 -0.0078125H76.213L62.5205 40.0002H60.7947ZM301.614 40.0002L315.303 -0.0078125H317.029L303.339 40.0002H301.614ZM292.743 40.0002L306.436 -0.0078125H308.163L294.47 40.0002H292.743ZM283.877 40.0002L297.567 -0.0078125H299.292L285.603 40.0002H283.877ZM275.007 40.0002L288.7 -0.0078125H290.426L276.733 40.0002H275.007ZM266.14 40.0002L279.832 -0.0078125H281.56L267.867 40.0002H266.14ZM257.269 40.0002L270.964 -0.0078125H272.691L258.997 40.0002H257.269ZM248.404 40.0002L262.096 -0.0078125H263.823L250.13 40.0002H248.404ZM239.537 40.0002L253.227 -0.0078125H254.953L241.263 40.0002H239.537ZM230.667 40.0002L244.36 -0.0078125H246.085L232.393 40.0002H230.667ZM221.801 40.0002L235.49 -0.0078125H237.217L223.526 40.0002H221.801ZM212.931 40.0002L226.623 -0.0078125H228.349L214.657 40.0002H212.931ZM204.064 40.0002L217.757 -0.0078125H219.484L205.791 40.0002H204.064ZM195.194 40.0002L208.886 -0.0078125H210.613L196.92 40.0002H195.194ZM186.328 40.0002L200.021 -0.0078125H201.747L188.054 40.0002H186.328ZM426.409 40.0002L440.098 -0.0078125H441.824L428.133 40.0002H426.409ZM417.538 40.0002L431.231 -0.0078125H432.957L419.265 40.0002H417.538ZM408.672 40.0002L422.362 -0.0078125H424.087L410.397 40.0002H408.672ZM399.802 40.0002L413.495 -0.0078125H415.22L401.528 40.0002H399.802ZM390.936 40.0002L404.628 -0.0078125H406.355L392.661 40.0002H390.936ZM382.064 40.0002L395.758 -0.0078125H397.484L383.792 40.0002H382.064ZM373.199 40.0002L386.891 -0.0078125H388.618L374.925 40.0002H373.199ZM364.332 40.0002L378.022 -0.0078125H379.747L366.058 40.0002H364.332ZM355.462 40.0002L369.155 -0.0078125H370.881L357.188 40.0002H355.462ZM346.596 40.0002L360.285 -0.0078125H362.012L348.32 40.0002H346.596ZM337.726 40.0002L351.418 -0.0078125H353.144L339.451 40.0002H337.726ZM328.859 40.0002L342.552 -0.0078125H344.278L330.585 40.0002H328.859ZM319.989 40.0002L333.681 -0.0078125H335.408L321.714 40.0002H319.989ZM311.123 40.0002L324.816 -0.0078125H326.541L312.849 40.0002H311.123Z" fill="#EDB509"/>
</g>
<defs>
<clipPath id="clip0">
<rect width="1504" height="40" fill="white" transform="translate(-64)"/>
</clipPath>
</defs>
</svg>
