<svg width="122" height="35" viewBox="0 0 122 35" fill="none" xmlns="http://www.w3.org/2000/svg">
<path d="M21.1797 21.0547H7.67969V35H0.648438V0.875H22.8672V6.57031H7.67969V15.3828H21.1797V21.0547ZM41.7109 27.9688H29.3828L27.0391 35H19.5625L32.2656 0.875H38.7812L51.5547 35H44.0781L41.7109 27.9688ZM31.2812 22.2734H39.8125L35.5234 9.5L31.2812 22.2734ZM67.375 22.5078H61.7734V35H54.7422V0.875H67.4219C71.4531 0.875 74.5625 1.77344 76.75 3.57031C78.9375 5.36719 80.0312 7.90625 80.0312 11.1875C80.0312 13.5156 79.5234 15.4609 78.5078 17.0234C77.5078 18.5703 75.9844 19.8047 73.9375 20.7266L81.3203 34.6719V35H73.7734L67.375 22.5078ZM61.7734 16.8125H67.4453C69.2109 16.8125 70.5781 16.3672 71.5469 15.4766C72.5156 14.5703 73 13.3281 73 11.75C73 10.1406 72.5391 8.875 71.6172 7.95312C70.7109 7.03125 69.3125 6.57031 67.4219 6.57031H61.7734V16.8125ZM94.5859 0.875L103.352 25.625L112.07 0.875H121.305V35H114.25V25.6719L114.953 9.57031L105.742 35H100.914L91.7266 9.59375L92.4297 25.6719V35H85.3984V0.875H94.5859Z" fill="#008000"/>
</svg>
